<svg width="809" height="142" viewBox="0 0 809 142" fill="none" xmlns="http://www.w3.org/2000/svg">
<path d="M736.735 44.3527C743.724 44.3869 747.218 44.404 749.814 45.9195C751.514 46.9123 752.923 48.3352 753.899 50.0452C755.389 52.6553 755.372 56.1498 755.338 63.1386C755.303 70.1274 755.286 73.6218 753.771 76.2173C752.778 77.9176 751.355 79.3266 749.645 80.3027C747.035 81.7927 743.541 81.7756 736.552 81.7414L18.6882 78.2253C11.6994 78.1911 8.20497 78.174 5.60952 76.6585C3.90916 75.6657 2.50016 74.2428 1.52403 72.5328C0.034047 69.9226 0.0511623 66.4282 0.0853929 59.4394C0.119623 52.4506 0.136739 48.9562 1.65222 46.3607C2.64505 44.6604 4.06793 43.2514 5.77793 42.2753C8.3881 40.7853 11.8825 40.8024 18.8713 40.8366L736.735 44.3527Z" fill="#E2F2F5"/>
<g clip-path="url(#clip0_2279_187)">
<path d="M29.0954 40.8867C32.6204 40.904 34.3829 40.9126 35.4727 42.0131C36.5624 43.1135 36.5538 44.876 36.5365 48.4011L36.4266 70.8343C36.4094 74.3594 36.4007 76.1219 35.3003 77.2116C34.1998 78.3013 32.4373 78.2927 28.9122 78.2754L20.5908 78.2347C13.602 78.2005 10.1076 78.1833 7.51214 76.6678C5.81182 75.675 4.40279 74.2521 3.42667 72.5422C1.93668 69.932 1.9538 66.4376 1.98803 59.4488C2.02226 52.4599 2.03937 48.9655 3.55486 46.3701C4.54768 44.6697 5.97058 43.2607 7.68054 42.2846C10.2907 40.7946 13.7851 40.8117 20.7739 40.846L29.0954 40.8867Z" fill="#C4C4C4" fill-opacity="0.74"/>
<path d="M9.67009 40.7919L26.4219 78.2636L1.01951 78.1392L-14.5226 40.6734L9.67009 40.7919Z" fill="#FFCF25"/>
<path d="M33.2805 41.1375C34.0658 41.1414 34.7761 41.6044 35.0966 42.3213L50.0562 75.7841C50.6494 77.111 49.674 78.6075 48.2206 78.6003L27.2482 78.4976C26.4432 78.4937 25.7191 78.0075 25.4106 77.264L11.5312 43.8064C10.9833 42.4856 11.9584 41.0331 13.3884 41.0401L33.2805 41.1375Z" fill="#FCE492"/>
</g>
<path d="M769.927 41.2656C770.306 37.9679 769.777 35.0367 768.619 32.583C767.668 30.5671 767.503 28.2121 768.107 25.9922C768.149 25.8366 768.195 25.6815 768.245 25.5274L770.176 19.563C771.271 16.1803 769.734 12.5236 766.624 11.4143C763.398 10.2632 759.817 12.2144 758.688 15.7009L757.629 18.9728C756.671 21.9303 754.413 24.2559 751.599 25.168C748.852 26.0586 746.223 27.8538 744.064 30.6976C736.576 40.5598 727.195 48.832 716.434 54.841C705.674 60.85 694.054 64.3055 682.371 65.1484C675.065 65.6757 670.103 71.0622 668.517 77.2622C666.924 83.4877 668.736 90.5336 674.997 94.3052C682.601 98.8856 691.243 101.73 700.436 102.442C724.579 104.313 748.172 91.1377 760.981 68.6328C765.863 60.0544 768.843 50.7095 769.927 41.2656Z" fill="#C4C4C4"/>
<path d="M768.107 25.9922C768.149 25.8366 768.195 25.6815 768.245 25.5274L769.258 22.3989L770.176 19.563C771.271 16.1803 769.734 12.5236 766.624 11.4143C763.398 10.2632 759.817 12.2144 758.688 15.7009L757.709 18.7256L757.629 18.9728C756.671 21.9303 754.413 24.2559 751.599 25.168C748.852 26.0586 746.223 27.8538 744.064 30.6977C736.576 40.5598 727.195 48.832 716.434 54.8411C705.674 60.85 694.054 64.3055 682.371 65.1485C675.065 65.6757 670.103 71.0622 668.517 77.2622C687.504 85.6334 709.325 84.7605 728.412 74.8647C747.372 65.0348 761.811 47.2464 768.107 25.9922Z" fill="#D6D6D3"/>
<path d="M770.774 18.0956L771.692 15.2598C772.787 11.8771 771.25 8.22038 768.14 7.11103C764.914 5.96002 761.333 7.91113 760.205 11.3977L759.225 14.4224C762.68 16.6764 766.654 17.9407 770.774 18.0956Z" fill="#CCCCCC"/>
<path d="M697.15 95.2719C696.517 97.1454 691.636 98.2052 686.322 96.4097C681.008 94.6142 677.272 90.6434 677.905 88.7699C678.538 86.8964 683.359 86.8331 688.674 88.6286C693.988 90.424 697.783 93.3984 697.15 95.2719Z" fill="white" fill-opacity="0.6"/>
<path d="M743.757 38.037C742.793 36.9797 744.025 33.3436 747.275 30.3796C750.526 27.4156 754.564 26.246 755.528 27.3033C756.492 28.3606 754.639 31.6205 751.388 34.5845C748.138 37.5485 744.721 39.0942 743.757 38.037Z" fill="white" fill-opacity="0.45"/>
<path d="M668 81.7818V80.5811C668 79.5339 668.169 78.4935 668.5 77.5L670 78L673 79L678.5 80.5L677.5 88.5L677 95.5C675.013 94.5065 673.199 93.1992 671.628 91.6283L671.5 91.5L670.43 90.1623C669.813 89.3916 669.314 88.5343 668.947 87.618C668.65 86.8753 668.443 86.0998 668.33 85.308L668.172 84.206C668.058 83.403 668 82.5929 668 81.7818Z" fill="#EEBF00"/>
<path d="M669.502 78L668.5 77.5L668.561 77.1926C668.853 75.7374 669.336 74.3274 670 73L671 71.5C671.331 70.8377 671.767 70.2331 672.291 69.7094L672.5 69.5L673.5 68.5L675 67.5L676.5 66.5L678 66L680 65.5L682 65H683.5H685H685.5H686L685 66.5L684 67.5L683 68.5C682.338 69.1623 681.786 69.9271 681.368 70.7649L681 71.5L680.707 72.0858C680.236 73.0274 679.833 74.0013 679.5 75L679 77L678.5 80.5L672 79L670.5 78.5L669.502 78Z" fill="#FFD422"/>
<defs>
<clipPath id="clip0_2279_187">
<path d="M159.335 41.5247L159.152 78.9134L18.6882 78.2254C11.6994 78.1912 8.20497 78.1741 5.60952 76.6586C3.90919 75.6658 2.50016 74.2429 1.52406 72.5329C0.0340617 69.9227 0.051177 66.4283 0.0854076 59.4395C0.119638 52.4507 0.136754 48.9563 1.65225 46.3608C2.64505 44.6605 4.06796 43.2514 5.77793 42.2753C8.3881 40.7853 11.8825 40.8024 18.8713 40.8367L159.335 41.5247Z" fill="white"/>
</clipPath>
</defs>
</svg>
