<svg width="822" height="186" viewBox="0 0 822 186" fill="none" xmlns="http://www.w3.org/2000/svg">
<path d="M736.735 44.3527C743.724 44.3869 747.219 44.404 749.814 45.9195C751.514 46.9123 752.923 48.3352 753.899 50.0452C755.389 52.6553 755.372 56.1498 755.338 63.1386C755.304 70.1274 755.287 73.6218 753.771 76.2173C752.778 77.9176 751.356 79.3266 749.646 80.3027C747.035 81.7927 743.541 81.7756 736.552 81.7414L18.6887 78.2253C11.6999 78.1911 8.20546 78.174 5.61001 76.6585C3.90965 75.6657 2.50065 74.2428 1.52452 72.5328C0.0345352 69.9226 0.0516505 66.4282 0.0858811 59.4394C0.120112 52.4506 0.137227 48.9562 1.6527 46.3607C2.64554 44.6604 4.06841 43.2514 5.77842 42.2753C8.38859 40.7853 11.883 40.8024 18.8718 40.8366L736.735 44.3527Z" fill="#FCE492"/>
<g clip-path="url(#clip0_2268_182)">
<path d="M711.816 44.2305L711.633 81.6192L18.6891 78.2252C11.7003 78.191 8.20586 78.1739 5.6104 76.6584C3.91004 75.6656 2.50104 74.2427 1.52491 72.5327C0.0349282 69.9225 0.0520435 66.4281 0.0862741 59.4393C0.120505 52.4505 0.13762 48.9561 1.6531 46.3606C2.64593 44.6603 4.06881 43.2512 5.77881 42.2751C8.38898 40.7851 11.8834 40.8023 18.8722 40.8365L711.816 44.2305Z" fill="#FCE492"/>
<path d="M585.762 43.8434C586.547 43.8472 587.257 44.3102 587.578 45.0271L602.537 78.4899C603.131 79.8168 602.155 81.3133 600.702 81.3062L579.729 81.2034C578.924 81.1995 578.2 80.7133 577.892 79.9698L564.012 46.5123C563.464 45.1914 564.44 43.7389 565.87 43.7459L585.762 43.8434Z" fill="#FCE492"/>
<path d="M21.9646 41.1067C23.4326 41.1139 24.7605 41.9794 25.3597 43.3196L38.7611 73.2969C39.87 75.7775 38.0465 78.575 35.3294 78.5617L18.2087 78.4779C16.7038 78.4705 15.35 77.5617 14.7734 76.1717L2.33972 46.1991C1.31536 43.7298 3.13825 41.0145 5.81158 41.0275L21.9646 41.1067Z" fill="#FFCF25"/>
<path d="M21.9646 41.1067C23.4326 41.1139 24.7605 41.9794 25.3597 43.3196L38.7611 73.2969C39.87 75.7775 38.0465 78.575 35.3294 78.5617L18.2087 78.4779C16.7038 78.4705 15.35 77.5617 14.7734 76.1717L2.33972 46.1991C1.31536 43.7298 3.13825 41.0145 5.81158 41.0275L21.9646 41.1067Z" fill="#FFCF25"/>
<path d="M21.9646 41.1067C23.4326 41.1139 24.7605 41.9794 25.3597 43.3196L38.7611 73.2969C39.87 75.7775 38.0465 78.575 35.3294 78.5617L18.2087 78.4779C16.7038 78.4705 15.35 77.5617 14.7734 76.1717L2.33972 46.1991C1.31536 43.7298 3.13825 41.0145 5.81158 41.0275L21.9646 41.1067Z" fill="#FFCF25"/>
<path d="M52.9646 41.1067C54.4326 41.1139 55.7605 41.9794 56.3597 43.3196L69.7611 73.2969C70.87 75.7775 69.0465 78.575 66.3294 78.5617L49.2087 78.4779C47.7038 78.4705 46.35 77.5617 45.7734 76.1717L33.3397 46.1991C32.3154 43.7298 34.1383 41.0145 36.8116 41.0275L52.9646 41.1067Z" fill="#FFCF25"/>
<path d="M52.9646 41.1067C54.4326 41.1139 55.7605 41.9794 56.3597 43.3196L69.7611 73.2969C70.87 75.7775 69.0465 78.575 66.3294 78.5617L49.2087 78.4779C47.7038 78.4705 46.35 77.5617 45.7734 76.1717L33.3397 46.1991C32.3154 43.7298 34.1383 41.0145 36.8116 41.0275L52.9646 41.1067Z" fill="#FFCF25"/>
<path d="M52.9646 41.1067C54.4326 41.1139 55.7605 41.9794 56.3597 43.3196L69.7611 73.2969C70.87 75.7775 69.0465 78.575 66.3294 78.5617L49.2087 78.4779C47.7038 78.4705 46.35 77.5617 45.7734 76.1717L33.3397 46.1991C32.3154 43.7298 34.1383 41.0145 36.8116 41.0275L52.9646 41.1067Z" fill="#FFCF25"/>
<path d="M83.9646 41.1067C85.4326 41.1139 86.7605 41.9794 87.3597 43.3196L100.761 73.2969C101.87 75.7775 100.047 78.575 97.3294 78.5617L80.2087 78.4779C78.7038 78.4705 77.35 77.5617 76.7734 76.1717L64.3397 46.1991C63.3154 43.7298 65.1383 41.0145 67.8116 41.0275L83.9646 41.1067Z" fill="#FFCF25"/>
<path d="M83.9646 41.1067C85.4326 41.1139 86.7605 41.9794 87.3597 43.3196L100.761 73.2969C101.87 75.7775 100.047 78.575 97.3294 78.5617L80.2087 78.4779C78.7038 78.4705 77.35 77.5617 76.7734 76.1717L64.3397 46.1991C63.3154 43.7298 65.1383 41.0145 67.8116 41.0275L83.9646 41.1067Z" fill="#FFCF25"/>
<path d="M83.9646 41.1067C85.4326 41.1139 86.7605 41.9794 87.3597 43.3196L100.761 73.2969C101.87 75.7775 100.047 78.575 97.3294 78.5617L80.2087 78.4779C78.7038 78.4705 77.35 77.5617 76.7734 76.1717L64.3397 46.1991C63.3154 43.7298 65.1383 41.0145 67.8116 41.0275L83.9646 41.1067Z" fill="#FFCF25"/>
<path d="M114.965 41.1067C116.433 41.1139 117.761 41.9794 118.36 43.3196L131.761 73.2969C132.87 75.7775 131.047 78.575 128.329 78.5617L111.209 78.4779C109.704 78.4705 108.35 77.5617 107.773 76.1717L95.3397 46.1991C94.3154 43.7298 96.1383 41.0145 98.8116 41.0275L114.965 41.1067Z" fill="#FFCF25"/>
<path d="M114.965 41.1067C116.433 41.1139 117.761 41.9794 118.36 43.3196L131.761 73.2969C132.87 75.7775 131.047 78.575 128.329 78.5617L111.209 78.4779C109.704 78.4705 108.35 77.5617 107.773 76.1717L95.3397 46.1991C94.3154 43.7298 96.1383 41.0145 98.8116 41.0275L114.965 41.1067Z" fill="#FFCF25"/>
<path d="M114.965 41.1067C116.433 41.1139 117.761 41.9794 118.36 43.3196L131.761 73.2969C132.87 75.7775 131.047 78.575 128.329 78.5617L111.209 78.4779C109.704 78.4705 108.35 77.5617 107.773 76.1717L95.3397 46.1991C94.3154 43.7298 96.1383 41.0145 98.8116 41.0275L114.965 41.1067Z" fill="#FFCF25"/>
<path d="M144.965 41.1067C146.433 41.1139 147.761 41.9794 148.36 43.3196L161.761 73.2969C162.87 75.7775 161.047 78.575 158.329 78.5617L141.209 78.4779C139.704 78.4705 138.35 77.5617 137.773 76.1717L125.34 46.1991C124.315 43.7298 126.138 41.0145 128.812 41.0275L144.965 41.1067Z" fill="#FFCF25"/>
<path d="M144.965 41.1067C146.433 41.1139 147.761 41.9794 148.36 43.3196L161.761 73.2969C162.87 75.7775 161.047 78.575 158.329 78.5617L141.209 78.4779C139.704 78.4705 138.35 77.5617 137.773 76.1717L125.34 46.1991C124.315 43.7298 126.138 41.0145 128.812 41.0275L144.965 41.1067Z" fill="#FFCF25"/>
<path d="M144.965 41.1067C146.433 41.1139 147.761 41.9794 148.36 43.3196L161.761 73.2969C162.87 75.7775 161.047 78.575 158.329 78.5617L141.209 78.4779C139.704 78.4705 138.35 77.5617 137.773 76.1717L125.34 46.1991C124.315 43.7298 126.138 41.0145 128.812 41.0275L144.965 41.1067Z" fill="#FFCF25"/>
<path d="M175.965 41.1067C177.433 41.1139 178.761 41.9794 179.36 43.3196L192.761 73.2969C193.87 75.7775 192.047 78.575 189.329 78.5617L172.209 78.4779C170.704 78.4705 169.35 77.5617 168.773 76.1717L156.34 46.1991C155.315 43.7298 157.138 41.0145 159.812 41.0275L175.965 41.1067Z" fill="#FFCF25"/>
<path d="M175.965 41.1067C177.433 41.1139 178.761 41.9794 179.36 43.3196L192.761 73.2969C193.87 75.7775 192.047 78.575 189.329 78.5617L172.209 78.4779C170.704 78.4705 169.35 77.5617 168.773 76.1717L156.34 46.1991C155.315 43.7298 157.138 41.0145 159.812 41.0275L175.965 41.1067Z" fill="#FFCF25"/>
<path d="M175.965 41.1067C177.433 41.1139 178.761 41.9794 179.36 43.3196L192.761 73.2969C193.87 75.7775 192.047 78.575 189.329 78.5617L172.209 78.4779C170.704 78.4705 169.35 77.5617 168.773 76.1717L156.34 46.1991C155.315 43.7298 157.138 41.0145 159.812 41.0275L175.965 41.1067Z" fill="#FFCF25"/>
<path d="M206.965 41.1067C208.433 41.1139 209.761 41.9794 210.36 43.3196L223.761 73.2969C224.87 75.7775 223.047 78.575 220.329 78.5617L203.209 78.4779C201.704 78.4705 200.35 77.5617 199.773 76.1717L187.34 46.1991C186.315 43.7298 188.138 41.0145 190.812 41.0275L206.965 41.1067Z" fill="#FFCF25"/>
<path d="M206.965 41.1067C208.433 41.1139 209.761 41.9794 210.36 43.3196L223.761 73.2969C224.87 75.7775 223.047 78.575 220.329 78.5617L203.209 78.4779C201.704 78.4705 200.35 77.5617 199.773 76.1717L187.34 46.1991C186.315 43.7298 188.138 41.0145 190.812 41.0275L206.965 41.1067Z" fill="#FFCF25"/>
<path d="M206.965 41.1067C208.433 41.1139 209.761 41.9794 210.36 43.3196L223.761 73.2969C224.87 75.7775 223.047 78.575 220.329 78.5617L203.209 78.4779C201.704 78.4705 200.35 77.5617 199.773 76.1717L187.34 46.1991C186.315 43.7298 188.138 41.0145 190.812 41.0275L206.965 41.1067Z" fill="#FFCF25"/>
<path d="M237.965 41.1067C239.433 41.1139 240.761 41.9794 241.36 43.3196L254.761 73.2969C255.87 75.7775 254.047 78.575 251.329 78.5617L234.209 78.4779C232.704 78.4705 231.35 77.5617 230.773 76.1717L218.34 46.1991C217.315 43.7298 219.138 41.0145 221.812 41.0275L237.965 41.1067Z" fill="#FFCF25"/>
<path d="M237.965 41.1067C239.433 41.1139 240.761 41.9794 241.36 43.3196L254.761 73.2969C255.87 75.7775 254.047 78.575 251.329 78.5617L234.209 78.4779C232.704 78.4705 231.35 77.5617 230.773 76.1717L218.34 46.1991C217.315 43.7298 219.138 41.0145 221.812 41.0275L237.965 41.1067Z" fill="#FFCF25"/>
<path d="M237.965 41.1067C239.433 41.1139 240.761 41.9794 241.36 43.3196L254.761 73.2969C255.87 75.7775 254.047 78.575 251.329 78.5617L234.209 78.4779C232.704 78.4705 231.35 77.5617 230.773 76.1717L218.34 46.1991C217.315 43.7298 219.138 41.0145 221.812 41.0275L237.965 41.1067Z" fill="#FFCF25"/>
<path d="M515.965 44.1067C517.433 44.1139 518.761 44.9794 519.36 46.3196L532.761 76.2969C533.87 78.7775 532.047 81.575 529.329 81.5617L512.209 81.4779C510.704 81.4705 509.35 80.5617 508.773 79.1717L496.34 49.1991C495.315 46.7298 497.138 44.0145 499.812 44.0275L515.965 44.1067Z" fill="#FFCF25"/>
<path d="M515.965 44.1067C517.433 44.1139 518.761 44.9794 519.36 46.3196L532.761 76.2969C533.87 78.7775 532.047 81.575 529.329 81.5617L512.209 81.4779C510.704 81.4705 509.35 80.5617 508.773 79.1717L496.34 49.1991C495.315 46.7298 497.138 44.0145 499.812 44.0275L515.965 44.1067Z" fill="#FFCF25"/>
<path d="M515.965 44.1067C517.433 44.1139 518.761 44.9794 519.36 46.3196L532.761 76.2969C533.87 78.7775 532.047 81.575 529.329 81.5617L512.209 81.4779C510.704 81.4705 509.35 80.5617 508.773 79.1717L496.34 49.1991C495.315 46.7298 497.138 44.0145 499.812 44.0275L515.965 44.1067Z" fill="#FFCF25"/>
<path d="M546.965 44.1067C548.433 44.1139 549.761 44.9794 550.36 46.3196L563.761 76.2969C564.87 78.7775 563.047 81.575 560.329 81.5617L543.209 81.4779C541.704 81.4705 540.35 80.5617 539.773 79.1717L527.34 49.1991C526.315 46.7298 528.138 44.0145 530.812 44.0275L546.965 44.1067Z" fill="#FFCF25"/>
<path d="M546.965 44.1067C548.433 44.1139 549.761 44.9794 550.36 46.3196L563.761 76.2969C564.87 78.7775 563.047 81.575 560.329 81.5617L543.209 81.4779C541.704 81.4705 540.35 80.5617 539.773 79.1717L527.34 49.1991C526.315 46.7298 528.138 44.0145 530.812 44.0275L546.965 44.1067Z" fill="#FFCF25"/>
<path d="M546.965 44.1067C548.433 44.1139 549.761 44.9794 550.36 46.3196L563.761 76.2969C564.87 78.7775 563.047 81.575 560.329 81.5617L543.209 81.4779C541.704 81.4705 540.35 80.5617 539.773 79.1717L527.34 49.1991C526.315 46.7298 528.138 44.0145 530.812 44.0275L546.965 44.1067Z" fill="#FFCF25"/>
<path d="M577.965 44.1067C579.433 44.1139 580.761 44.9794 581.36 46.3196L594.761 76.2969C595.87 78.7775 594.047 81.575 591.329 81.5617L574.209 81.4779C572.704 81.4705 571.35 80.5617 570.773 79.1717L558.34 49.1991C557.315 46.7298 559.138 44.0145 561.812 44.0275L577.965 44.1067Z" fill="#FFCF25"/>
<path d="M577.965 44.1067C579.433 44.1139 580.761 44.9794 581.36 46.3196L594.761 76.2969C595.87 78.7775 594.047 81.575 591.329 81.5617L574.209 81.4779C572.704 81.4705 571.35 80.5617 570.773 79.1717L558.34 49.1991C557.315 46.7298 559.138 44.0145 561.812 44.0275L577.965 44.1067Z" fill="#FFCF25"/>
<path d="M577.965 44.1067C579.433 44.1139 580.761 44.9794 581.36 46.3196L594.761 76.2969C595.87 78.7775 594.047 81.575 591.329 81.5617L574.209 81.4779C572.704 81.4705 571.35 80.5617 570.773 79.1717L558.34 49.1991C557.315 46.7298 559.138 44.0145 561.812 44.0275L577.965 44.1067Z" fill="#FFCF25"/>
<path d="M608.965 44.1067C610.433 44.1139 611.761 44.9794 612.36 46.3196L625.761 76.2969C626.87 78.7775 625.047 81.575 622.329 81.5617L605.209 81.4779C603.704 81.4705 602.35 80.5617 601.773 79.1717L589.34 49.1991C588.315 46.7298 590.138 44.0145 592.812 44.0275L608.965 44.1067Z" fill="#FFCF25"/>
<path d="M608.965 44.1067C610.433 44.1139 611.761 44.9794 612.36 46.3196L625.761 76.2969C626.87 78.7775 625.047 81.575 622.329 81.5617L605.209 81.4779C603.704 81.4705 602.35 80.5617 601.773 79.1717L589.34 49.1991C588.315 46.7298 590.138 44.0145 592.812 44.0275L608.965 44.1067Z" fill="#FFCF25"/>
<path d="M608.965 44.1067C610.433 44.1139 611.761 44.9794 612.36 46.3196L625.761 76.2969C626.87 78.7775 625.047 81.575 622.329 81.5617L605.209 81.4779C603.704 81.4705 602.35 80.5617 601.773 79.1717L589.34 49.1991C588.315 46.7298 590.138 44.0145 592.812 44.0275L608.965 44.1067Z" fill="#FFCF25"/>
<path d="M638.965 44.1067C640.433 44.1139 641.761 44.9794 642.36 46.3196L655.761 76.2969C656.87 78.7775 655.047 81.575 652.329 81.5617L635.209 81.4779C633.704 81.4705 632.35 80.5617 631.773 79.1717L619.34 49.1991C618.315 46.7298 620.138 44.0145 622.812 44.0275L638.965 44.1067Z" fill="#FFCF25"/>
<path d="M638.965 44.1067C640.433 44.1139 641.761 44.9794 642.36 46.3196L655.761 76.2969C656.87 78.7775 655.047 81.575 652.329 81.5617L635.209 81.4779C633.704 81.4705 632.35 80.5617 631.773 79.1717L619.34 49.1991C618.315 46.7298 620.138 44.0145 622.812 44.0275L638.965 44.1067Z" fill="#FFCF25"/>
<path d="M638.965 44.1067C640.433 44.1139 641.761 44.9794 642.36 46.3196L655.761 76.2969C656.87 78.7775 655.047 81.575 652.329 81.5617L635.209 81.4779C633.704 81.4705 632.35 80.5617 631.773 79.1717L619.34 49.1991C618.315 46.7298 620.138 44.0145 622.812 44.0275L638.965 44.1067Z" fill="#FFCF25"/>
<path d="M669.965 44.1067C671.433 44.1139 672.761 44.9794 673.36 46.3196L686.761 76.2969C687.87 78.7775 686.047 81.575 683.329 81.5617L666.209 81.4779C664.704 81.4705 663.35 80.5617 662.773 79.1717L650.34 49.1991C649.315 46.7298 651.138 44.0145 653.812 44.0275L669.965 44.1067Z" fill="#FFCF25"/>
<path d="M669.965 44.1067C671.433 44.1139 672.761 44.9794 673.36 46.3196L686.761 76.2969C687.87 78.7775 686.047 81.575 683.329 81.5617L666.209 81.4779C664.704 81.4705 663.35 80.5617 662.773 79.1717L650.34 49.1991C649.315 46.7298 651.138 44.0145 653.812 44.0275L669.965 44.1067Z" fill="#FFCF25"/>
<path d="M669.965 44.1067C671.433 44.1139 672.761 44.9794 673.36 46.3196L686.761 76.2969C687.87 78.7775 686.047 81.575 683.329 81.5617L666.209 81.4779C664.704 81.4705 663.35 80.5617 662.773 79.1717L650.34 49.1991C649.315 46.7298 651.138 44.0145 653.812 44.0275L669.965 44.1067Z" fill="#FFCF25"/>
<path d="M700.965 44.1067C702.433 44.1139 703.761 44.9794 704.36 46.3196L717.761 76.2969C718.87 78.7775 717.047 81.575 714.329 81.5617L697.209 81.4779C695.704 81.4705 694.35 80.5617 693.773 79.1717L681.34 49.1991C680.315 46.7298 682.138 44.0145 684.812 44.0275L700.965 44.1067Z" fill="#FFCF25"/>
<path d="M700.965 44.1067C702.433 44.1139 703.761 44.9794 704.36 46.3196L717.761 76.2969C718.87 78.7775 717.047 81.575 714.329 81.5617L697.209 81.4779C695.704 81.4705 694.35 80.5617 693.773 79.1717L681.34 49.1991C680.315 46.7298 682.138 44.0145 684.812 44.0275L700.965 44.1067Z" fill="#FFCF25"/>
<path d="M700.965 44.1067C702.433 44.1139 703.761 44.9794 704.36 46.3196L717.761 76.2969C718.87 78.7775 717.047 81.575 714.329 81.5617L697.209 81.4779C695.704 81.4705 694.35 80.5617 693.773 79.1717L681.34 49.1991C680.315 46.7298 682.138 44.0145 684.812 44.0275L700.965 44.1067Z" fill="#FFCF25"/>
<path d="M731.965 44.1067C733.433 44.1139 734.761 44.9794 735.36 46.3196L748.761 76.2969C749.87 78.7775 748.047 81.575 745.329 81.5617L728.209 81.4779C726.704 81.4705 725.35 80.5617 724.773 79.1717L712.34 49.1991C711.315 46.7298 713.138 44.0145 715.812 44.0275L731.965 44.1067Z" fill="#FFCF25"/>
<path d="M731.965 44.1067C733.433 44.1139 734.761 44.9794 735.36 46.3196L748.761 76.2969C749.87 78.7775 748.047 81.575 745.329 81.5617L728.209 81.4779C726.704 81.4705 725.35 80.5617 724.773 79.1717L712.34 49.1991C711.315 46.7298 713.138 44.0145 715.812 44.0275L731.965 44.1067Z" fill="#FFCF25"/>
<path d="M731.965 44.1067C733.433 44.1139 734.761 44.9794 735.36 46.3196L748.761 76.2969C749.87 78.7775 748.047 81.575 745.329 81.5617L728.209 81.4779C726.704 81.4705 725.35 80.5617 724.773 79.1717L712.34 49.1991C711.315 46.7298 713.138 44.0145 715.812 44.0275L731.965 44.1067Z" fill="#FFCF25"/>
<path d="M269.965 44.1067C271.433 44.1139 272.761 44.9794 273.36 46.3196L286.761 76.2969C287.87 78.7775 286.047 81.575 283.329 81.5617L266.209 81.4779C264.704 81.4705 263.35 80.5617 262.773 79.1717L250.34 49.1991C249.315 46.7298 251.138 44.0145 253.812 44.0275L269.965 44.1067Z" fill="#FFCF25"/>
<path d="M269.965 44.1067C271.433 44.1139 272.761 44.9794 273.36 46.3196L286.761 76.2969C287.87 78.7775 286.047 81.575 283.329 81.5617L266.209 81.4779C264.704 81.4705 263.35 80.5617 262.773 79.1717L250.34 49.1991C249.315 46.7298 251.138 44.0145 253.812 44.0275L269.965 44.1067Z" fill="#FFCF25"/>
<path d="M269.965 44.1067C271.433 44.1139 272.761 44.9794 273.36 46.3196L286.761 76.2969C287.87 78.7775 286.047 81.575 283.329 81.5617L266.209 81.4779C264.704 81.4705 263.35 80.5617 262.773 79.1717L250.34 49.1991C249.315 46.7298 251.138 44.0145 253.812 44.0275L269.965 44.1067Z" fill="#FFCF25"/>
<path d="M300.965 44.1067C302.433 44.1139 303.761 44.9794 304.36 46.3196L317.761 76.2969C318.87 78.7775 317.047 81.575 314.329 81.5617L297.209 81.4779C295.704 81.4705 294.35 80.5617 293.773 79.1717L281.34 49.1991C280.315 46.7298 282.138 44.0145 284.812 44.0275L300.965 44.1067Z" fill="#FFCF25"/>
<path d="M300.965 44.1067C302.433 44.1139 303.761 44.9794 304.36 46.3196L317.761 76.2969C318.87 78.7775 317.047 81.575 314.329 81.5617L297.209 81.4779C295.704 81.4705 294.35 80.5617 293.773 79.1717L281.34 49.1991C280.315 46.7298 282.138 44.0145 284.812 44.0275L300.965 44.1067Z" fill="#FFCF25"/>
<path d="M300.965 44.1067C302.433 44.1139 303.761 44.9794 304.36 46.3196L317.761 76.2969C318.87 78.7775 317.047 81.575 314.329 81.5617L297.209 81.4779C295.704 81.4705 294.35 80.5617 293.773 79.1717L281.34 49.1991C280.315 46.7298 282.138 44.0145 284.812 44.0275L300.965 44.1067Z" fill="#FFCF25"/>
<path d="M330.965 44.1067C332.433 44.1139 333.761 44.9794 334.36 46.3196L347.761 76.2969C348.87 78.7775 347.047 81.575 344.329 81.5617L327.209 81.4779C325.704 81.4705 324.35 80.5617 323.773 79.1717L311.34 49.1991C310.315 46.7298 312.138 44.0145 314.812 44.0275L330.965 44.1067Z" fill="#FFCF25"/>
<path d="M330.965 44.1067C332.433 44.1139 333.761 44.9794 334.36 46.3196L347.761 76.2969C348.87 78.7775 347.047 81.575 344.329 81.5617L327.209 81.4779C325.704 81.4705 324.35 80.5617 323.773 79.1717L311.34 49.1991C310.315 46.7298 312.138 44.0145 314.812 44.0275L330.965 44.1067Z" fill="#FFCF25"/>
<path d="M330.965 44.1067C332.433 44.1139 333.761 44.9794 334.36 46.3196L347.761 76.2969C348.87 78.7775 347.047 81.575 344.329 81.5617L327.209 81.4779C325.704 81.4705 324.35 80.5617 323.773 79.1717L311.34 49.1991C310.315 46.7298 312.138 44.0145 314.812 44.0275L330.965 44.1067Z" fill="#FFCF25"/>
<path d="M361.965 44.1067C363.433 44.1139 364.761 44.9794 365.36 46.3196L378.761 76.2969C379.87 78.7775 378.047 81.575 375.329 81.5617L358.209 81.4779C356.704 81.4705 355.35 80.5617 354.773 79.1717L342.34 49.1991C341.315 46.7298 343.138 44.0145 345.812 44.0275L361.965 44.1067Z" fill="#FFCF25"/>
<path d="M361.965 44.1067C363.433 44.1139 364.761 44.9794 365.36 46.3196L378.761 76.2969C379.87 78.7775 378.047 81.575 375.329 81.5617L358.209 81.4779C356.704 81.4705 355.35 80.5617 354.773 79.1717L342.34 49.1991C341.315 46.7298 343.138 44.0145 345.812 44.0275L361.965 44.1067Z" fill="#FFCF25"/>
<path d="M361.965 44.1067C363.433 44.1139 364.761 44.9794 365.36 46.3196L378.761 76.2969C379.87 78.7775 378.047 81.575 375.329 81.5617L358.209 81.4779C356.704 81.4705 355.35 80.5617 354.773 79.1717L342.34 49.1991C341.315 46.7298 343.138 44.0145 345.812 44.0275L361.965 44.1067Z" fill="#FFCF25"/>
<path d="M392.965 44.1067C394.433 44.1139 395.761 44.9794 396.36 46.3196L409.761 76.2969C410.87 78.7775 409.047 81.575 406.329 81.5617L389.209 81.4779C387.704 81.4705 386.35 80.5617 385.773 79.1717L373.34 49.1991C372.315 46.7298 374.138 44.0145 376.812 44.0275L392.965 44.1067Z" fill="#FFCF25"/>
<path d="M392.965 44.1067C394.433 44.1139 395.761 44.9794 396.36 46.3196L409.761 76.2969C410.87 78.7775 409.047 81.575 406.329 81.5617L389.209 81.4779C387.704 81.4705 386.35 80.5617 385.773 79.1717L373.34 49.1991C372.315 46.7298 374.138 44.0145 376.812 44.0275L392.965 44.1067Z" fill="#FFCF25"/>
<path d="M392.965 44.1067C394.433 44.1139 395.761 44.9794 396.36 46.3196L409.761 76.2969C410.87 78.7775 409.047 81.575 406.329 81.5617L389.209 81.4779C387.704 81.4705 386.35 80.5617 385.773 79.1717L373.34 49.1991C372.315 46.7298 374.138 44.0145 376.812 44.0275L392.965 44.1067Z" fill="#FFCF25"/>
<path d="M423.965 44.1067C425.433 44.1139 426.761 44.9794 427.36 46.3196L440.761 76.2969C441.87 78.7775 440.047 81.575 437.329 81.5617L420.209 81.4779C418.704 81.4705 417.35 80.5617 416.773 79.1717L404.34 49.1991C403.315 46.7298 405.138 44.0145 407.812 44.0275L423.965 44.1067Z" fill="#FFCF25"/>
<path d="M423.965 44.1067C425.433 44.1139 426.761 44.9794 427.36 46.3196L440.761 76.2969C441.87 78.7775 440.047 81.575 437.329 81.5617L420.209 81.4779C418.704 81.4705 417.35 80.5617 416.773 79.1717L404.34 49.1991C403.315 46.7298 405.138 44.0145 407.812 44.0275L423.965 44.1067Z" fill="#FFCF25"/>
<path d="M423.965 44.1067C425.433 44.1139 426.761 44.9794 427.36 46.3196L440.761 76.2969C441.87 78.7775 440.047 81.575 437.329 81.5617L420.209 81.4779C418.704 81.4705 417.35 80.5617 416.773 79.1717L404.34 49.1991C403.315 46.7298 405.138 44.0145 407.812 44.0275L423.965 44.1067Z" fill="#FFCF25"/>
<path d="M453.965 44.1067C455.433 44.1139 456.761 44.9794 457.36 46.3196L470.761 76.2969C471.87 78.7775 470.047 81.575 467.329 81.5617L450.209 81.4779C448.704 81.4705 447.35 80.5617 446.773 79.1717L434.34 49.1991C433.315 46.7298 435.138 44.0145 437.812 44.0275L453.965 44.1067Z" fill="#FFCF25"/>
<path d="M453.965 44.1067C455.433 44.1139 456.761 44.9794 457.36 46.3196L470.761 76.2969C471.87 78.7775 470.047 81.575 467.329 81.5617L450.209 81.4779C448.704 81.4705 447.35 80.5617 446.773 79.1717L434.34 49.1991C433.315 46.7298 435.138 44.0145 437.812 44.0275L453.965 44.1067Z" fill="#FFCF25"/>
<path d="M453.965 44.1067C455.433 44.1139 456.761 44.9794 457.36 46.3196L470.761 76.2969C471.87 78.7775 470.047 81.575 467.329 81.5617L450.209 81.4779C448.704 81.4705 447.35 80.5617 446.773 79.1717L434.34 49.1991C433.315 46.7298 435.138 44.0145 437.812 44.0275L453.965 44.1067Z" fill="#FFCF25"/>
<path d="M484.965 44.1067C486.433 44.1139 487.761 44.9794 488.36 46.3196L501.761 76.2969C502.87 78.7775 501.047 81.575 498.329 81.5617L481.209 81.4779C479.704 81.4705 478.35 80.5617 477.773 79.1717L465.34 49.1991C464.315 46.7298 466.138 44.0145 468.812 44.0275L484.965 44.1067Z" fill="#FFCF25"/>
<path d="M484.965 44.1067C486.433 44.1139 487.761 44.9794 488.36 46.3196L501.761 76.2969C502.87 78.7775 501.047 81.575 498.329 81.5617L481.209 81.4779C479.704 81.4705 478.35 80.5617 477.773 79.1717L465.34 49.1991C464.315 46.7298 466.138 44.0145 468.812 44.0275L484.965 44.1067Z" fill="#FFCF25"/>
<path d="M484.965 44.1067C486.433 44.1139 487.761 44.9794 488.36 46.3196L501.761 76.2969C502.87 78.7775 501.047 81.575 498.329 81.5617L481.209 81.4779C479.704 81.4705 478.35 80.5617 477.773 79.1717L465.34 49.1991C464.315 46.7298 466.138 44.0145 468.812 44.0275L484.965 44.1067Z" fill="#FFCF25"/>
</g>
<path d="M768.816 51.2163C769.065 46.9942 768.185 43.3022 766.539 40.2622C765.187 37.7645 764.811 34.7799 765.422 31.9131C765.465 31.7122 765.513 31.5116 765.565 31.3121L767.601 23.5876C768.756 19.2068 766.543 14.6629 762.508 13.4708C758.322 12.234 753.905 14.9688 752.714 19.4842L751.597 23.7215C750.588 27.5517 747.878 30.6698 744.363 32.0286C740.931 33.3554 737.712 35.8247 735.166 39.5951C726.335 52.6703 714.983 63.8561 701.717 72.2599C688.451 80.6636 673.91 85.8793 659.107 87.7756C649.848 88.9616 643.916 96.1645 642.335 104.164C640.748 112.197 643.549 121.034 651.781 125.39C661.778 130.682 672.973 133.691 684.72 133.949C715.567 134.626 744.654 116.2 759.363 86.6652C764.969 75.407 768.102 63.3078 768.816 51.2163Z" fill="#EEBF00"/>
<path d="M765.422 31.9131C765.465 31.7122 765.513 31.5116 765.565 31.3121L766.633 27.2603L767.601 23.5876C768.756 19.2068 766.543 14.6629 762.508 13.4708C758.322 12.234 753.905 14.9688 752.714 19.4842L751.682 23.4014L751.597 23.7215C750.588 27.5517 747.878 30.6698 744.363 32.0286C740.931 33.3554 737.712 35.8247 735.166 39.5951C726.335 52.6703 714.983 63.8561 701.717 72.2599C688.451 80.6636 673.91 85.8793 659.107 87.7756C649.848 88.9616 643.916 96.1645 642.335 104.164C667.082 113.476 694.782 110.826 718.368 96.8904C741.796 83.0472 758.912 59.3977 765.422 31.9131Z" fill="#FFD422"/>
<path d="M768.262 21.6783L769.231 18.0056C770.385 13.6248 768.172 9.0809 764.138 7.88884C759.952 6.65199 755.534 9.38679 754.343 13.9022L753.311 17.8194C757.865 20.4435 763.01 21.7717 768.262 21.6783Z" fill="#AA6100"/>
<path d="M680.036 125.058C679.362 127.487 673.228 129.179 666.34 127.269C659.452 125.36 654.42 120.571 655.094 118.143C655.767 115.715 661.896 115.294 668.784 117.204C675.671 119.114 680.709 122.63 680.036 125.058Z" fill="white"/>
<path d="M735.296 48.9543C733.995 47.6772 735.306 42.9643 739.232 38.9641C743.159 34.9639 748.214 33.1912 749.515 34.4683C750.816 35.7454 748.688 40.0236 744.762 44.0238C740.835 48.024 736.597 50.2315 735.296 48.9543Z" fill="white" fill-opacity="0.85"/>
<defs>
<clipPath id="clip0_2268_182">
<path d="M711.816 44.2305L711.633 81.6192L18.6891 78.2252C11.7003 78.191 8.20586 78.1739 5.6104 76.6584C3.91004 75.6656 2.50104 74.2427 1.52491 72.5327C0.0349282 69.9225 0.0520435 66.4281 0.0862741 59.4393C0.120505 52.4505 0.13762 48.9561 1.6531 46.3606C2.64593 44.6603 4.06881 43.2512 5.77881 42.2751C8.38898 40.7851 11.8834 40.8023 18.8722 40.8365L711.816 44.2305Z" fill="white"/>
</clipPath>
</defs>
</svg>
