<svg width="459" height="129" viewBox="0 0 459 129" fill="none" xmlns="http://www.w3.org/2000/svg">
<g filter="url(#filter0_d_0_364)">
<path d="M384.884 46.5199C384.884 39.805 393.05 35.9704 400.2 39.3278L426.261 51.5656C434 55.1995 434.73 64.3899 427.548 67.7623L401.487 80.0001C394.305 83.3726 384.884 78.2631 384.884 70.9955L384.884 46.5199Z" fill="#FFDF6D"/>
</g>
<g filter="url(#filter1_d_0_364)">
<rect width="404.994" height="120.509" rx="40.1695" fill="#FFDF6D"/>
</g>
<g filter="url(#filter2_di_0_364)">
<rect x="12.3477" y="6.02539" width="380.3" height="100.424" rx="40.1695" fill="#FFCF25"/>
</g>
<path d="M33.1973 38.9963C33.1973 27.4003 42.5976 18 54.1935 18H343.112C354.708 18 364.107 27.3997 364.107 38.9948V38.9948C364.107 51.4132 353.429 61.1434 341.058 60.0569C307.55 57.114 244.45 52.1609 199.158 52.1441C153.524 52.1272 89.9221 57.1081 56.2453 60.0605C43.8747 61.145 33.1973 51.4144 33.1973 38.9963V38.9963Z" fill="#FFD84C"/>
<path d="M71.9108 16.5919C76.6397 21.1287 72.5158 30.2931 65.4445 35.1687C58.3731 40.0444 46.5822 41.8532 41.8534 37.3164C37.1245 32.7796 40.0196 24.4625 48.3197 18.7396C56.6199 13.0167 67.182 12.0551 71.9108 16.5919Z" fill="#FFF7DD"/>
<defs>
<filter id="filter0_d_0_364" x="384.884" y="38.0908" width="47.6416" height="51.0051" filterUnits="userSpaceOnUse" color-interpolation-filters="sRGB">
<feFlood flood-opacity="0" result="BackgroundImageFix"/>
<feColorMatrix in="SourceAlpha" type="matrix" values="0 0 0 0 0 0 0 0 0 0 0 0 0 0 0 0 0 0 127 0" result="hardAlpha"/>
<feOffset dy="8.03391"/>
<feComposite in2="hardAlpha" operator="out"/>
<feColorMatrix type="matrix" values="0 0 0 0 1 0 0 0 0 0.835982 0 0 0 0 0.251667 0 0 0 1 0"/>
<feBlend mode="normal" in2="BackgroundImageFix" result="effect1_dropShadow_0_364"/>
<feBlend mode="normal" in="SourceGraphic" in2="effect1_dropShadow_0_364" result="shape"/>
</filter>
<filter id="filter1_d_0_364" x="0" y="0" width="404.994" height="128.542" filterUnits="userSpaceOnUse" color-interpolation-filters="sRGB">
<feFlood flood-opacity="0" result="BackgroundImageFix"/>
<feColorMatrix in="SourceAlpha" type="matrix" values="0 0 0 0 0 0 0 0 0 0 0 0 0 0 0 0 0 0 127 0" result="hardAlpha"/>
<feOffset dy="8.03391"/>
<feComposite in2="hardAlpha" operator="out"/>
<feColorMatrix type="matrix" values="0 0 0 0 1 0 0 0 0 0.835982 0 0 0 0 0.251667 0 0 0 1 0"/>
<feBlend mode="normal" in2="BackgroundImageFix" result="effect1_dropShadow_0_364"/>
<feBlend mode="normal" in="SourceGraphic" in2="effect1_dropShadow_0_364" result="shape"/>
</filter>
<filter id="filter2_di_0_364" x="5.34766" y="6.02539" width="387.3" height="108.458" filterUnits="userSpaceOnUse" color-interpolation-filters="sRGB">
<feFlood flood-opacity="0" result="BackgroundImageFix"/>
<feColorMatrix in="SourceAlpha" type="matrix" values="0 0 0 0 0 0 0 0 0 0 0 0 0 0 0 0 0 0 127 0" result="hardAlpha"/>
<feOffset dy="8.03391"/>
<feComposite in2="hardAlpha" operator="out"/>
<feColorMatrix type="matrix" values="0 0 0 0 0.929167 0 0 0 0 0.72458 0 0 0 0 0 0 0 0 1 0"/>
<feBlend mode="normal" in2="BackgroundImageFix" result="effect1_dropShadow_0_364"/>
<feBlend mode="normal" in="SourceGraphic" in2="effect1_dropShadow_0_364" result="shape"/>
<feColorMatrix in="SourceAlpha" type="matrix" values="0 0 0 0 0 0 0 0 0 0 0 0 0 0 0 0 0 0 127 0" result="hardAlpha"/>
<feOffset dx="-7" dy="8"/>
<feGaussianBlur stdDeviation="9.9"/>
<feComposite in2="hardAlpha" operator="arithmetic" k2="-1" k3="1"/>
<feColorMatrix type="matrix" values="0 0 0 0 0.929412 0 0 0 0 0.72549 0 0 0 0 0 0 0 0 1 0"/>
<feBlend mode="normal" in2="shape" result="effect2_innerShadow_0_364"/>
</filter>
</defs>
</svg>
