<svg width="262" height="264" viewBox="0 0 262 264" fill="none" xmlns="http://www.w3.org/2000/svg">
<g clip-path="url(#clip0_2230_177)" filter="url(#filter0_dd_2230_177)">
<rect x="25" y="29" width="173.117" height="221" fill="url(#paint0_linear_2230_177)"/>
<g filter="url(#filter1_d_2230_177)">
<path fill-rule="evenodd" clip-rule="evenodd" d="M198.117 29H25V250H198.117V29ZM48.7885 38.2083C39.6344 38.2083 32.2135 45.6292 32.2135 54.7833V224.217C32.2135 233.371 39.6344 240.792 48.7885 240.792H174.329C183.483 240.792 190.904 233.371 190.904 224.217V54.7833C190.904 45.6292 183.483 38.2083 174.329 38.2083H48.7885Z" fill="white"/>
</g>
<g filter="url(#filter2_d_2230_177)">
<path d="M137.786 115.825C145.654 122.569 146.028 134.559 139.035 141.803L114.81 166.782C113.311 168.406 110.689 168.406 109.19 166.782L84.9648 141.803C77.9718 134.559 78.3464 122.569 86.2135 115.825C93.0816 109.955 103.321 111.079 109.565 117.573L112.062 120.071L114.435 117.573C120.804 111.079 130.918 109.955 137.786 115.825Z" fill="url(#paint1_linear_2230_177)"/>
</g>
</g>
<g clip-path="url(#clip1_2230_177)">
<rect width="182.517" height="233" transform="translate(79.8267) rotate(5.62216)" fill="#FF896F"/>
<rect x="79.8267" width="182.517" height="233" transform="rotate(5.62216 79.8267 0)" fill="#FFD5CC"/>
<g filter="url(#filter3_d_2230_177)">
<path fill-rule="evenodd" clip-rule="evenodd" d="M261.465 17.8807L79.8267 0L57.0002 231.879L238.639 249.76L261.465 17.8807ZM103.835 12.1186C94.2307 11.1731 85.6781 18.1928 84.7326 27.7976L67.2323 205.572C66.2867 215.176 73.3064 223.729 82.9112 224.675L214.631 237.641C224.236 238.587 232.789 231.567 233.734 221.962L251.235 44.1883C252.18 34.5835 245.161 26.0309 235.556 25.0853L103.835 12.1186Z" fill="white"/>
</g>
<g filter="url(#filter4_d_2230_177)">
<path d="M201.915 122.228C200.743 137.885 190.525 160.457 169.378 167.991C164.064 169.885 161.47 167.284 155.315 166.977C149.816 166.702 147.935 168.465 142.906 166.086C122.021 156.204 114.644 132.556 115.901 115.785C117.543 93.8602 136.574 84.0657 160.271 100.811C184.482 88.4859 203.558 100.303 201.915 122.228Z" fill="#FF542F"/>
<path fill-rule="evenodd" clip-rule="evenodd" d="M160.587 96.513C148.812 88.7614 137.508 86.7886 128.459 90.3236C118.842 94.0806 113.079 103.539 112.182 115.507C110.855 133.228 118.566 158.695 141.311 169.457C144.454 170.944 146.818 171.186 149.162 171.043C149.967 170.994 150.627 170.923 151.248 170.857C152.438 170.731 153.484 170.619 155.129 170.701C157.085 170.799 158.466 171.138 160.037 171.523C160.611 171.664 161.21 171.81 161.871 171.954C164.37 172.496 167.104 172.761 170.63 171.504C193.646 163.304 204.396 139.049 205.635 122.507C206.544 110.371 201.686 100.39 192.579 95.4049C184.058 90.741 172.677 90.9212 160.587 96.513ZM169.379 167.991C190.525 160.457 200.743 137.885 201.916 122.229C203.558 100.303 184.482 88.4863 160.271 100.812C136.575 84.066 117.544 93.8605 115.901 115.786C114.645 132.556 122.022 156.205 142.906 166.086C146.171 167.631 148.109 167.429 150.572 167.173C151.903 167.035 153.387 166.88 155.315 166.977C157.656 167.094 159.481 167.542 161.137 167.949C163.836 168.612 166.085 169.165 169.379 167.991Z" fill="white"/>
<path fill-rule="evenodd" clip-rule="evenodd" d="M162.101 157.274C183.247 149.739 191.814 127.005 192.987 111.348C193.33 106.764 192.768 102.621 191.442 99.048C198.628 103.322 202.714 111.584 201.917 122.228C200.744 137.884 190.526 160.457 169.38 167.991C166.086 169.164 163.837 168.612 161.138 167.949C159.482 167.542 157.657 167.093 155.316 166.976C153.387 166.88 151.904 167.034 150.573 167.173C148.11 167.429 146.172 167.631 142.907 166.086C135.268 162.472 129.437 157.016 125.174 150.728C127.331 152.354 129.71 153.805 132.326 155.044C135.694 156.637 138.391 156.445 141.456 156.227C142.968 156.12 144.57 156.006 146.387 156.097C148.667 156.211 150.686 156.662 152.593 157.088C155.834 157.813 158.755 158.466 162.101 157.274Z" fill="#ED4A27"/>
<path d="M190.003 116.91C189.573 118.691 187.781 119.786 186 119.356C184.219 118.927 183.123 117.135 183.553 115.353C183.983 113.572 185.775 112.477 187.556 112.906C189.337 113.336 190.433 115.128 190.003 116.91Z" fill="#C53622"/>
<path d="M197.998 127.348C197.568 129.129 195.776 130.224 193.995 129.794C192.213 129.365 191.118 127.573 191.548 125.791C191.977 124.01 193.77 122.915 195.551 123.344C197.332 123.774 198.427 125.566 197.998 127.348Z" fill="#C53622"/>
<path d="M199.039 114.823C198.716 116.159 197.372 116.981 196.036 116.659C194.701 116.336 193.879 114.992 194.201 113.656C194.523 112.32 195.868 111.499 197.203 111.821C198.539 112.143 199.361 113.488 199.039 114.823Z" fill="#C53622"/>
<path d="M193.621 138.511C193.191 140.292 191.399 141.387 189.618 140.958C187.837 140.528 186.741 138.736 187.171 136.955C187.6 135.173 189.393 134.078 191.174 134.508C192.955 134.937 194.05 136.73 193.621 138.511Z" fill="#C53622"/>
<path d="M185.626 128.073C185.196 129.854 183.404 130.949 181.623 130.52C179.842 130.09 178.746 128.298 179.176 126.517C179.606 124.736 181.398 123.64 183.179 124.07C184.96 124.499 186.056 126.292 185.626 128.073Z" fill="#C53622"/>
<path d="M186.94 150.491C186.51 152.272 184.718 153.368 182.936 152.938C181.155 152.509 180.06 150.716 180.49 148.935C180.919 147.154 182.711 146.059 184.493 146.488C186.274 146.918 187.369 148.71 186.94 150.491Z" fill="#C53622"/>
<path d="M181.292 139.83C180.862 141.611 179.07 142.706 177.289 142.277C175.507 141.847 174.412 140.055 174.842 138.274C175.271 136.493 177.064 135.397 178.845 135.827C180.626 136.256 181.721 138.049 181.292 139.83Z" fill="#C53622"/>
<path d="M179.673 157.175C179.351 158.511 178.007 159.333 176.671 159.011C175.335 158.688 174.514 157.344 174.836 156.008C175.158 154.673 176.502 153.851 177.838 154.173C179.174 154.495 179.996 155.84 179.673 157.175Z" fill="#C53622"/>
<path d="M182.119 68.8395C182.119 68.8395 184.298 84.3242 179.625 92.1779C173.993 101.644 159.874 100.886 159.874 100.886C159.874 100.886 156.76 88.8663 163.378 79.3326C168.468 71.9989 182.119 68.8395 182.119 68.8395Z" fill="#7CD623"/>
<path fill-rule="evenodd" clip-rule="evenodd" d="M185.812 68.32L182.119 68.8397L181.278 65.2066C182.297 64.9708 183.368 65.1736 184.23 65.7656C185.092 66.3576 185.666 67.2844 185.812 68.32ZM178.493 69.8965C180.649 69.18 182.119 68.8397 182.119 68.8397C182.119 68.8397 182.327 70.3189 182.477 72.5948C182.811 77.6825 182.854 86.7517 179.625 92.1781C173.993 101.644 159.874 100.887 159.874 100.887C159.874 100.887 156.76 88.8665 163.378 79.3328C166.798 74.406 174.081 71.3632 178.493 69.8965ZM159.874 100.887C156.264 101.822 156.264 101.821 156.264 101.819L156.261 101.81L156.257 101.793L156.245 101.746C156.236 101.709 156.224 101.661 156.21 101.601C156.182 101.481 156.145 101.317 156.102 101.111C156.017 100.7 155.908 100.121 155.802 99.4047C155.591 97.9764 155.388 95.9755 155.415 93.6416C155.469 89.0168 156.43 82.8025 160.314 77.2063C163.496 72.6226 169.032 69.6604 173.209 67.8997C175.383 66.9833 177.377 66.3166 178.828 65.8782C179.555 65.6583 180.152 65.494 180.575 65.3831C180.786 65.3276 180.954 65.2853 181.073 65.256C181.132 65.2413 181.179 65.2299 181.214 65.2217L181.256 65.2117L181.274 65.2074L181.278 65.2066C181.279 65.2064 181.278 65.2066 182.119 68.8397C185.812 68.32 185.812 68.3193 185.812 68.32L185.813 68.3282L185.815 68.342L185.821 68.3863L185.841 68.5402C185.858 68.6711 185.881 68.8577 185.908 69.0943C185.963 69.5673 186.033 70.2418 186.103 71.072C186.241 72.7278 186.374 75.0261 186.353 77.594C186.314 82.5189 185.714 89.2379 182.83 94.0848C179.264 100.079 173.154 102.618 168.49 103.712C166.108 104.272 163.941 104.495 162.371 104.581C161.583 104.624 160.934 104.632 160.471 104.63C160.24 104.628 160.054 104.624 159.919 104.62C159.852 104.618 159.797 104.616 159.756 104.614L159.705 104.612L159.687 104.611L159.68 104.611L159.677 104.611C159.676 104.611 159.675 104.61 159.874 100.887ZM156.264 101.822L159.874 100.887L159.675 104.61C158.052 104.523 156.672 103.395 156.264 101.822Z" fill="white"/>
<path d="M177.133 91.9896C181.212 86.1144 180.416 73.2703 180.416 73.2703C169.06 82.9601 165.295 94.5976 164.284 98.8343C164.284 98.8343 173.055 97.8649 177.133 91.9896Z" fill="#6FC21C"/>
<path d="M142.127 82.5451C145.611 83.7488 156.449 94.978 159.148 101.571C159.373 102.122 160.881 101.444 160.691 100.963C159.388 94.8073 154.743 80.1238 150.311 75.3999C143.935 74.6364 142.059 81.1827 142.127 82.5451Z" fill="#943D31"/>
<path fill-rule="evenodd" clip-rule="evenodd" d="M140.91 86.0699C139.472 85.5731 138.48 84.2525 138.403 82.733C138.352 81.7186 138.616 80.5425 138.945 79.5617C139.31 78.473 139.899 77.1898 140.798 75.9674C142.679 73.4074 145.966 71.1239 150.755 71.6973C151.625 71.8016 152.431 72.2091 153.031 72.8484C154.504 74.419 155.816 76.5984 156.949 78.8406C158.109 81.1379 159.199 83.7435 160.169 86.3403C162.066 91.4243 163.589 96.7132 164.302 100.013C164.872 102.043 163.624 103.536 163.247 103.926C162.685 104.51 162.037 104.874 161.525 105.09C161.023 105.302 160.262 105.536 159.374 105.503C158.522 105.471 156.554 105.076 155.697 102.984C154.613 100.335 151.616 96.2854 148.189 92.5633C146.526 90.7566 144.866 89.1416 143.453 87.9319C142.745 87.326 142.134 86.8518 141.641 86.5142C141.195 86.209 140.964 86.0968 140.916 86.0736C140.906 86.0687 140.904 86.0678 140.91 86.0699ZM160.692 100.963C160.69 100.956 160.689 100.949 160.687 100.942C160.514 100.125 160.282 99.1591 160 98.0872C159.642 96.726 159.203 95.1937 158.7 93.578C156.607 86.86 153.408 78.6999 150.311 75.4001C143.935 74.6365 142.059 81.1828 142.128 82.5452C144.639 83.413 150.973 89.4916 155.324 95.2872C156.245 96.5137 157.077 97.7274 157.765 98.8765C158.277 99.7316 158.709 100.551 159.04 101.313C159.077 101.4 159.114 101.486 159.149 101.572C159.374 102.122 160.881 101.444 160.692 100.963ZM157.021 101.63C157.062 101.855 157.127 102.089 157.223 102.331C157.146 102.138 157.086 101.939 157.043 101.735C157.036 101.701 157.029 101.666 157.021 101.63Z" fill="white"/>
<path d="M151.534 75.6455C152.577 77.0038 151.504 79.579 149.137 81.3975C146.769 83.2159 144.004 83.5889 142.961 82.2306C141.918 80.8724 142.991 78.2971 145.358 76.4787C147.726 74.6602 150.491 74.2872 151.534 75.6455Z" fill="#C26649"/>
<path d="M142.654 99.1992C147.324 102.098 147.585 110.127 143.237 117.132C138.889 124.137 131.579 127.466 126.908 124.568C122.238 121.669 121.977 113.64 126.325 106.635C130.673 99.6295 137.984 96.3005 142.654 99.1992Z" fill="#FF896F"/>
<path fill-rule="evenodd" clip-rule="evenodd" d="M136.391 104.548C137.835 106.016 137.817 108.377 136.349 109.822C135.393 110.763 134.727 111.79 134.301 112.917C133.574 114.844 131.422 115.816 129.496 115.089C127.569 114.362 126.596 112.21 127.324 110.283C128.148 108.098 129.429 106.168 131.117 104.507C132.585 103.062 134.946 103.081 136.391 104.548Z" fill="white"/>
</g>
</g>
<defs>
<filter id="filter0_dd_2230_177" x="0.200001" y="6.2" width="210.317" height="257.2" filterUnits="userSpaceOnUse" color-interpolation-filters="sRGB">
<feFlood flood-opacity="0" result="BackgroundImageFix"/>
<feColorMatrix in="SourceAlpha" type="matrix" values="0 0 0 0 0 0 0 0 0 0 0 0 0 0 0 0 0 0 127 0" result="hardAlpha"/>
<feOffset dx="-7" dy="-5"/>
<feGaussianBlur stdDeviation="8.9"/>
<feComposite in2="hardAlpha" operator="out"/>
<feColorMatrix type="matrix" values="0 0 0 0 0.922969 0 0 0 0 0.920293 0 0 0 0 0.920293 0 0 0 1 0"/>
<feBlend mode="normal" in2="BackgroundImageFix" result="effect1_dropShadow_2230_177"/>
<feColorMatrix in="SourceAlpha" type="matrix" values="0 0 0 0 0 0 0 0 0 0 0 0 0 0 0 0 0 0 127 0" result="hardAlpha"/>
<feOffset dx="3" dy="4"/>
<feGaussianBlur stdDeviation="4.7"/>
<feComposite in2="hardAlpha" operator="out"/>
<feColorMatrix type="matrix" values="0 0 0 0 0.921569 0 0 0 0 0.921569 0 0 0 0 0.921569 0 0 0 0.31 0"/>
<feBlend mode="normal" in2="effect1_dropShadow_2230_177" result="effect2_dropShadow_2230_177"/>
<feBlend mode="normal" in="SourceGraphic" in2="effect2_dropShadow_2230_177" result="shape"/>
</filter>
<filter id="filter1_d_2230_177" x="22.5444" y="26.5444" width="179.256" height="227.139" filterUnits="userSpaceOnUse" color-interpolation-filters="sRGB">
<feFlood flood-opacity="0" result="BackgroundImageFix"/>
<feColorMatrix in="SourceAlpha" type="matrix" values="0 0 0 0 0 0 0 0 0 0 0 0 0 0 0 0 0 0 127 0" result="hardAlpha"/>
<feOffset dx="0.613889" dy="0.613889"/>
<feGaussianBlur stdDeviation="1.53472"/>
<feColorMatrix type="matrix" values="0 0 0 0 0 0 0 0 0 0 0 0 0 0 0 0 0 0 0.25 0"/>
<feBlend mode="overlay" in2="BackgroundImageFix" result="effect1_dropShadow_2230_177"/>
<feBlend mode="normal" in="SourceGraphic" in2="effect1_dropShadow_2230_177" result="shape"/>
</filter>
<filter id="filter2_d_2230_177" x="62.8" y="94.8" width="98.4" height="98.4" filterUnits="userSpaceOnUse" color-interpolation-filters="sRGB">
<feFlood flood-opacity="0" result="BackgroundImageFix"/>
<feColorMatrix in="SourceAlpha" type="matrix" values="0 0 0 0 0 0 0 0 0 0 0 0 0 0 0 0 0 0 127 0" result="hardAlpha"/>
<feOffset dy="4"/>
<feGaussianBlur stdDeviation="8.6"/>
<feComposite in2="hardAlpha" operator="out"/>
<feColorMatrix type="matrix" values="0 0 0 0 0.982523 0 0 0 0 0.515133 0 0 0 0 0.65599 0 0 0 1 0"/>
<feBlend mode="normal" in2="BackgroundImageFix" result="effect1_dropShadow_2230_177"/>
<feBlend mode="normal" in="SourceGraphic" in2="effect1_dropShadow_2230_177" result="shape"/>
</filter>
<filter id="filter3_d_2230_177" x="54.4111" y="-2.58889" width="210.938" height="256.232" filterUnits="userSpaceOnUse" color-interpolation-filters="sRGB">
<feFlood flood-opacity="0" result="BackgroundImageFix"/>
<feColorMatrix in="SourceAlpha" type="matrix" values="0 0 0 0 0 0 0 0 0 0 0 0 0 0 0 0 0 0 127 0" result="hardAlpha"/>
<feOffset dx="0.647222" dy="0.647222"/>
<feGaussianBlur stdDeviation="1.61806"/>
<feColorMatrix type="matrix" values="0 0 0 0 0 0 0 0 0 0 0 0 0 0 0 0 0 0 0.25 0"/>
<feBlend mode="overlay" in2="BackgroundImageFix" result="effect1_dropShadow_2230_177"/>
<feBlend mode="normal" in="SourceGraphic" in2="effect1_dropShadow_2230_177" result="shape"/>
</filter>
<filter id="filter4_d_2230_177" x="106.439" y="62.5105" width="122.904" height="136.495" filterUnits="userSpaceOnUse" color-interpolation-filters="sRGB">
<feFlood flood-opacity="0" result="BackgroundImageFix"/>
<feColorMatrix in="SourceAlpha" type="matrix" values="0 0 0 0 0 0 0 0 0 0 0 0 0 0 0 0 0 0 127 0" result="hardAlpha"/>
<feOffset dx="9" dy="12"/>
<feGaussianBlur stdDeviation="7.3"/>
<feComposite in2="hardAlpha" operator="out"/>
<feColorMatrix type="matrix" values="0 0 0 0 0.993115 0 0 0 0 0.743134 0 0 0 0 0.689567 0 0 0 1 0"/>
<feBlend mode="normal" in2="BackgroundImageFix" result="effect1_dropShadow_2230_177"/>
<feBlend mode="normal" in="SourceGraphic" in2="effect1_dropShadow_2230_177" result="shape"/>
</filter>
<linearGradient id="paint0_linear_2230_177" x1="111.558" y1="29" x2="111.558" y2="250" gradientUnits="userSpaceOnUse">
<stop stop-color="#FBA8C1"/>
<stop offset="0.46" stop-color="#FBA8C1" stop-opacity="0.54"/>
<stop offset="1" stop-color="#FBA8C1" stop-opacity="0.97"/>
</linearGradient>
<linearGradient id="paint1_linear_2230_177" x1="112" y1="112" x2="112" y2="411.5" gradientUnits="userSpaceOnUse">
<stop stop-color="white"/>
<stop offset="1" stop-color="#FF5E8E" stop-opacity="0"/>
</linearGradient>
<clipPath id="clip0_2230_177">
<rect width="173.117" height="221" fill="white" transform="translate(25 29)"/>
</clipPath>
<clipPath id="clip1_2230_177">
<rect width="182.517" height="233" fill="white" transform="translate(79.8267) rotate(5.62216)"/>
</clipPath>
</defs>
</svg>
