<svg width="557" height="752" viewBox="0 0 557 752" fill="none" xmlns="http://www.w3.org/2000/svg">
<g filter="url(#filter0_d_2251_181)">
<rect x="47.5635" y="276.926" width="462.564" height="465.597" rx="45.4981" transform="rotate(0.441137 47.5635 276.926)" fill="#FFF5D1"/>
</g>
<path d="M158.313 15.1887L263.164 3.32528L269.899 224.07L203 231.64L158.313 15.1887Z" fill="url(#paint0_linear_2251_181)"/>
<path d="M402.438 14.5382L297.636 2.24754L290.002 222.963L356.869 230.805L402.438 14.5382Z" fill="url(#paint1_linear_2251_181)"/>
<path d="M145.017 49.2681L58.0982 74.9408L126.544 251.713L182.001 235.333L145.017 49.2681Z" fill="url(#paint2_linear_2251_181)"/>
<path d="M415.599 48.6713L502.412 74.698L433.246 251.19L377.856 234.584L415.599 48.6713Z" fill="url(#paint3_linear_2251_181)"/>
<path d="M62.4443 131.538L4.76475 160.929L75.9386 276.113L112.74 257.361L62.4443 131.538Z" fill="url(#paint4_linear_2251_181)"/>
<path d="M497.832 131.276L555.391 160.902L483.749 275.796L447.024 256.894L497.832 131.276Z" fill="url(#paint5_linear_2251_181)"/>
<g filter="url(#filter1_d_2251_181)">
<path d="M35.6462 266.71C23.5787 244.947 17.545 234.065 20.9507 226.994C24.3564 219.923 35.2357 218.091 56.9945 214.427L90.3941 208.802C104.494 206.428 111.544 205.241 116.662 208.883C121.78 212.526 122.968 219.576 125.342 233.676L135.687 295.109C138.062 309.209 139.249 316.259 135.606 321.377C131.964 326.495 124.913 327.683 110.813 330.057L77.7247 335.629C55.9378 339.298 45.0444 341.132 39.5162 335.622C33.988 330.111 36.0336 317.727 40.1249 292.96C41.0883 287.128 41.3927 281.995 40.6023 278.39C39.8944 275.16 38.0926 271.122 35.6462 266.71Z" fill="url(#paint6_linear_2251_181)"/>
</g>
<g filter="url(#filter2_d_2251_181)">
<path d="M521.686 270.453C534.087 248.878 540.288 238.09 536.991 230.967C533.695 223.844 522.845 221.845 501.145 217.846L467.836 211.708C453.774 209.117 446.743 207.821 441.57 211.385C436.396 214.948 435.101 221.979 432.509 236.041L421.22 297.308C418.628 311.369 417.333 318.4 420.896 323.574C424.46 328.747 431.49 330.043 445.552 332.634L478.551 338.715C500.279 342.719 511.143 344.721 516.755 339.296C522.368 333.871 520.513 321.457 516.804 296.63C515.93 290.783 515.705 285.647 516.551 282.054C517.308 278.836 519.172 274.826 521.686 270.453Z" fill="url(#paint7_linear_2251_181)"/>
</g>
<g filter="url(#filter3_d_2251_181)">
<path d="M73.5677 231.827C73.7478 208.429 73.8379 196.73 81.3936 188.215C88.9493 179.7 99.9747 178.293 122.026 175.479C158.15 170.868 212.672 165.965 278.818 166.475C344.964 166.984 399.404 172.726 435.454 177.892C457.459 181.045 468.461 182.622 475.885 191.252C483.308 199.882 483.218 211.581 483.038 234.979L482.872 256.595C482.634 287.491 482.515 302.939 472.769 311.862C463.023 320.786 447.513 319.537 416.493 317.039C371.254 313.397 313.184 309.304 277.721 309.031C242.257 308.758 184.131 311.956 138.842 314.901C107.787 316.921 92.2595 317.931 82.652 308.859C73.0444 299.786 73.1634 284.338 73.4013 253.442L73.5677 231.827Z" fill="url(#paint8_linear_2251_181)"/>
</g>
<path d="M215.483 538.181L224.025 524.272C227.162 519.164 233.193 516.609 239.044 517.909L239.694 518.054L247.289 520.079C248.018 520.273 248.761 520.409 249.511 520.484L259.97 521.529H271.557H279.084C279.858 521.529 280.63 521.465 281.393 521.338L294.15 519.212L303.964 516.759C307.859 515.786 311.961 517.202 314.426 520.371L316.682 523.529C317.109 524.126 317.488 524.755 317.816 525.411L319.64 529.059L323.116 534.852L325.837 538.932C326.339 539.686 326.768 540.486 327.116 541.322L328.109 543.704C329.005 545.854 329.184 548.236 328.618 550.496C328.427 551.263 328.152 552.006 327.798 552.713L327.612 553.086C326.936 554.437 326.048 555.669 324.98 556.737L324.1 557.617C323.446 558.271 322.729 558.859 321.959 559.372L321.465 559.701C320.256 560.507 318.929 561.121 317.532 561.52L315.585 562.076L313.003 562.937C312.411 563.134 311.791 563.235 311.167 563.235C309.53 563.235 308.278 564.693 308.527 566.311L308.633 567C308.983 569.27 310.689 571.093 312.931 571.591L313.705 571.763C314.185 571.869 314.674 571.923 315.165 571.923H318.482H321.958H324.043C324.968 571.923 325.89 571.832 326.797 571.65L329.793 571.051C330.746 570.861 331.677 570.572 332.571 570.189L335.282 569.027L339.917 566.71L343.579 564.269C344.609 563.582 345.543 562.763 346.359 561.831L348.3 559.612C348.889 558.939 349.412 558.212 349.863 557.44L352.604 552.741C353.028 552.015 353.385 551.253 353.673 550.463L355.037 546.711C355.383 545.759 355.626 544.771 355.76 543.767L356.717 536.59L358.455 526.742L360.037 516.194C360.141 515.504 360.193 514.807 360.193 514.11V511.427C360.193 510.06 360.392 508.7 360.785 507.39L361.931 503.573L362.784 499.733C362.987 498.82 363.281 497.929 363.661 497.074L365.407 493.147L366.227 490.96C366.833 489.342 367.733 487.85 368.881 486.559L371.779 483.3L374.679 479.571C375.446 478.586 376.341 477.707 377.339 476.958L380.469 474.611L384.746 471.617C385.752 470.913 386.847 470.344 388.001 469.924L392.635 468.239L399.007 465.922L402.716 465.098C403.716 464.876 404.738 464.764 405.763 464.764H408.856H411.369C412.394 464.764 413.416 464.876 414.416 465.098L416.752 465.617C417.665 465.82 418.555 466.114 419.41 466.493L423.339 468.239L427.128 469.923C428.073 470.343 428.956 470.892 429.75 471.554L430.593 472.256C431.534 473.04 432.255 474.055 432.685 475.202L432.844 475.627C433.432 477.195 433.341 478.937 432.592 480.435C432.22 481.178 431.694 481.84 431.056 482.372C429.498 483.671 427.385 484.125 425.435 483.567L425.103 483.473C424.7 483.358 424.308 483.205 423.933 483.018L422.106 482.104C421.384 481.743 420.633 481.445 419.86 481.214L415.228 479.824L410.67 478.581C409.466 478.253 408.223 478.086 406.974 478.086H404.545C403.178 478.086 401.818 478.286 400.508 478.679L398.373 479.319C397.255 479.654 396.184 480.128 395.183 480.728L390.897 483.3L387.061 486.176C386.529 486.575 386.026 487.011 385.556 487.481L382.497 490.539C381.919 491.118 381.391 491.746 380.922 492.417L378.657 495.651C377.937 496.68 377.358 497.8 376.936 498.983L374.676 505.311L372.938 512.261L371.779 520.371L370.314 527.695C370.133 528.602 370.041 529.525 370.041 530.451V537.164C370.041 537.938 369.977 538.711 369.85 539.474L368.484 547.666C368.364 548.39 368.187 549.103 367.955 549.799L365.894 555.979C365.57 556.951 365.14 557.886 364.613 558.765L361.931 563.235L359.345 567.544C358.754 568.529 358.044 569.438 357.232 570.25L354.4 573.082L350.084 576.438C349.486 576.903 348.851 577.318 348.186 577.681L342.813 580.612L338.179 582.349L334.897 583.662C333.238 584.325 331.467 584.666 329.68 584.666H325.434H318.482H313.847H312.109C310.509 584.666 309.213 585.963 309.213 587.563V593.441C309.213 595.296 308.845 597.133 308.132 598.845L306.316 603.202L302.261 610.732L299.897 614.278C298.425 616.485 296.244 618.144 293.727 618.982C291.764 619.637 289.62 619.578 287.699 618.81C286.149 618.19 285.406 616.422 286.048 614.882L286.532 613.72C287.354 611.748 287.778 609.632 287.778 607.495V605.519V602.218C287.778 600.974 287.389 599.762 286.666 598.75C285.546 597.182 283.738 596.251 281.811 596.251H275.612H264.026H258.296C256.417 596.251 254.632 597.072 253.41 598.498C252.41 599.665 251.86 601.15 251.86 602.687V607.435C251.86 609.615 252.252 611.778 253.018 613.82L253.518 615.153C254.397 617.498 252.664 620 250.159 620C249.383 620 248.628 619.748 248.007 619.283L246.689 618.294C243.597 615.976 240.961 613.106 238.913 609.83L236.218 605.519L230.75 594.584C229.774 592.633 229.266 590.482 229.266 588.3V571.725C229.266 567.457 227.326 563.42 223.993 560.754L218.679 556.503C213.145 552.076 211.774 544.22 215.483 538.181Z" fill="#D2714C" stroke="#D2714C" stroke-width="0.351213"/>
<circle cx="173.001" cy="434.876" r="29.0006" fill="#D2714C"/>
<g filter="url(#filter4_f_2251_181)">
<circle cx="174.813" cy="434.877" r="21.7504" fill="#FFE1C2"/>
</g>
<g filter="url(#filter5_f_2251_181)">
<ellipse cx="169.567" cy="445.775" rx="12.5596" ry="10.9896" fill="#D2714C" fill-opacity="0.51"/>
</g>
<circle cx="29.0006" cy="29.0006" r="29.0006" transform="matrix(-1 0 0 1 388.69 405.876)" fill="#D2714C"/>
<g filter="url(#filter6_f_2251_181)">
<circle cx="21.7504" cy="21.7504" r="21.7504" transform="matrix(-1 0 0 1 379.628 413.126)" fill="#FFE1C2"/>
</g>
<g filter="url(#filter7_f_2251_181)">
<ellipse cx="12.3353" cy="10.9896" rx="12.3353" ry="10.9896" transform="matrix(-1 0 0 1 375.453 434.785)" fill="#D2714C" fill-opacity="0.51"/>
</g>
<g filter="url(#filter8_f_2251_181)">
<path d="M420.758 477.174C420.758 480.271 423.369 482.781 426.59 482.781C429.81 482.781 432.421 480.271 432.421 477.174C432.421 474.078 429.81 471.567 426.59 471.567C423.369 471.567 420.758 474.078 420.758 477.174Z" fill="white" fill-opacity="0.9"/>
</g>
<path fill-rule="evenodd" clip-rule="evenodd" d="M279.511 337.549C284.214 339.261 286.639 344.461 284.927 349.165L278.108 367.9C276.641 371.93 272.614 374.287 268.532 373.803C267.862 374.29 267.114 374.693 266.296 374.99C261.593 376.702 256.393 374.277 254.681 369.574L247.862 350.838C246.15 346.135 248.575 340.935 253.278 339.223C257.981 337.511 263.182 339.936 264.894 344.639L266.09 347.925L267.895 342.965C269.607 338.262 274.808 335.837 279.511 337.549Z" fill="#D2714C"/>
<path d="M359.693 444.214C359.693 487.107 317.901 521.878 266.348 521.878C214.794 521.878 173.002 487.107 173.002 444.214C173.002 401.322 214.794 353.312 266.348 353.312C317.901 353.312 359.693 401.322 359.693 444.214Z" fill="#D2714C"/>
<path fill-rule="evenodd" clip-rule="evenodd" d="M188.168 486.666C189.021 469.602 203.067 454.815 221.69 454.815H311.16C329.713 454.815 343.727 469.493 344.672 486.48C328.028 507.787 299.166 521.878 266.347 521.878C233.624 521.878 204.834 507.869 188.168 486.666Z" fill="#FFE1C2"/>
<g filter="url(#filter9_f_2251_181)">
<path d="M340.917 416.871C340.917 441.34 305.07 420.477 265.824 420.477C226.578 420.477 187.959 441.765 187.959 416.871C187.959 391.978 224.302 363.648 263.304 359.177C290.267 356.086 340.917 389.827 340.917 416.871Z" fill="url(#paint9_linear_2251_181)"/>
</g>
<path fill-rule="evenodd" clip-rule="evenodd" d="M302.551 482.762C324.099 482.762 341.566 462.899 341.566 438.397C341.566 413.895 324.099 394.033 302.551 394.033C286.956 394.033 273.497 404.438 267.252 419.477C261.007 404.438 247.549 394.033 231.953 394.033C210.406 394.033 192.938 413.896 192.938 438.397C192.938 462.899 210.406 482.762 231.953 482.762C247.549 482.762 261.008 472.356 267.252 457.318C273.497 472.356 286.956 482.762 302.551 482.762Z" fill="#FFE1C2"/>
<path d="M321.63 447.565C321.63 457.575 315.138 447.565 307.13 447.565C299.122 447.565 292.63 457.575 292.63 447.565C292.63 437.554 299.122 429.439 307.13 429.439C315.138 429.439 321.63 437.554 321.63 447.565Z" fill="#562B30"/>
<path d="M312.456 443.418C312.456 446.922 310.022 443.418 307.019 443.418C304.016 443.418 301.581 446.922 301.581 443.418C301.581 439.915 304.016 437.074 307.019 437.074C310.022 437.074 312.456 439.915 312.456 443.418Z" fill="white"/>
<path d="M246.936 447.732C246.936 457.742 240.444 447.732 232.436 447.732C224.428 447.732 217.936 457.742 217.936 447.732C217.936 437.721 224.428 429.606 232.436 429.606C240.444 429.606 246.936 437.721 246.936 447.732Z" fill="#562B30"/>
<path d="M237.762 443.585C237.762 447.089 235.327 443.585 232.324 443.585C229.321 443.585 226.887 447.089 226.887 443.585C226.887 440.082 229.321 437.241 232.324 437.241C235.327 437.241 237.762 440.082 237.762 443.585Z" fill="white"/>
<path d="M281.179 465.956C281.179 469.341 275.848 471.525 269.272 471.525C262.695 471.525 257.364 469.341 257.364 465.956C257.364 462.571 262.695 458.441 269.272 458.441C275.848 458.441 281.179 462.571 281.179 465.956Z" fill="#562B30"/>
<circle cx="274.735" cy="463.118" r="1.68103" fill="white"/>
<path d="M269.218 461.892V474.284C269.218 478.331 272.499 481.612 276.545 481.612H277.569C281.051 481.612 283.873 478.789 283.873 475.308V475.308" stroke="#562B30" stroke-width="3.08189" stroke-linecap="round" stroke-linejoin="round"/>
<path d="M269.218 461.891V474.283C269.218 478.33 265.937 481.611 261.89 481.611H260.866C257.385 481.611 254.562 478.788 254.562 475.307V475.307" stroke="#562B30" stroke-width="3.08189" stroke-linecap="round" stroke-linejoin="round"/>
<g filter="url(#filter10_f_2251_181)">
<ellipse cx="317.283" cy="478.396" rx="13.594" ry="9.96895" fill="#FFB99B"/>
</g>
<g filter="url(#filter11_f_2251_181)">
<ellipse cx="222.637" cy="478.396" rx="13.594" ry="9.96895" fill="#FFB99B"/>
</g>
<g filter="url(#filter12_f_2251_181)">
<ellipse cx="223.29" cy="551.231" rx="9.88915" ry="5.12503" transform="rotate(41.3313 223.29 551.231)" fill="#A14724" fill-opacity="0.63"/>
</g>
<g filter="url(#filter13_f_2251_181)">
<ellipse cx="269.359" cy="558.981" rx="20.1821" ry="25.6914" transform="rotate(1.97407 269.359 558.981)" fill="#FFE1C2" fill-opacity="0.9"/>
</g>
<path d="M285.014 474.473C287.93 485.239 281.385 500.265 269.315 500.265C259.901 500.265 250.027 484.79 253.84 474.473C254.617 472.37 258.607 490.192 269.315 478.744C281.932 487.276 280.039 478.066 285.014 474.473Z" fill="#562B30"/>
<path d="M324.54 548.241L328.091 546.111C330.545 544.147 332.498 541.629 333.787 538.762L335.131 535.777C335.167 535.697 335.186 535.609 335.186 535.521V528.628C335.186 528.583 335.182 528.538 335.176 528.493C334.213 521.752 335.159 514.804 337.925 508.581C338.076 508.242 338.413 508.023 338.785 508.023H341.16H343.331C345.081 508.023 346.792 508.541 348.248 509.511C348.253 509.515 348.258 509.517 348.263 509.52L351.858 511.179C352.545 511.496 352.839 512.316 352.509 512.998L351.574 514.929C348.898 520.46 347.508 526.524 347.508 532.668L347.893 538.051C348.133 541.414 347.87 544.793 347.112 548.078C346.386 551.223 345.115 554.216 343.356 556.922L342.534 558.187C341.624 559.587 340.496 560.832 339.192 561.875C335.632 564.723 331.208 566.275 326.648 566.275H324.349C321.407 566.275 318.506 565.59 315.875 564.274L313.154 562.914L315.768 558.433L319.876 553.205L324.211 548.509C324.308 548.404 324.419 548.314 324.54 548.241Z" fill="#D2714C" stroke="#D2714C" stroke-width="0.746824"/>
<circle cx="344.521" cy="507.649" r="11.5758" fill="#D2714C"/>
<circle cx="344.521" cy="507.649" r="11.5758" fill="#D2714C"/>
<circle cx="344.521" cy="507.649" r="11.5758" fill="#D2714C"/>
<g filter="url(#filter14_f_2251_181)">
<circle cx="344.148" cy="507.276" r="7.46824" fill="#D2714C"/>
<circle cx="344.148" cy="507.276" r="7.46824" fill="#D2714C"/>
<circle cx="344.148" cy="507.276" r="7.46824" fill="#F9D1B2"/>
</g>
<path d="M364.144 491.92C364.234 490.383 363.914 489.038 363.315 487.931C362.822 487.021 362.685 485.934 362.908 484.889C362.923 484.816 362.941 484.743 362.96 484.671L363.701 481.857C364.122 480.261 363.316 478.606 361.846 478.172C360.322 477.722 358.712 478.718 358.279 480.362L357.872 481.906C357.504 483.301 356.517 484.437 355.237 484.932C353.987 485.415 352.815 486.314 351.887 487.688C348.67 492.45 344.536 496.524 339.704 499.585C334.871 502.646 329.575 504.546 324.183 505.237C320.811 505.669 318.65 508.292 318.074 511.206C317.496 514.132 318.516 517.351 321.515 518.938C325.156 520.865 329.234 521.961 333.512 522.055C344.748 522.302 355.343 515.59 360.701 504.832C362.743 500.732 363.884 496.325 364.144 491.92Z" fill="#EEBF00"/>
<path d="M362.908 484.889C362.923 484.816 362.941 484.743 362.96 484.671L363.349 483.195L363.701 481.857C364.122 480.261 363.316 478.606 361.846 478.172C360.322 477.722 358.712 478.718 358.279 480.362L357.903 481.789L357.872 481.906C357.504 483.301 356.517 484.437 355.237 484.932C353.987 485.415 352.815 486.314 351.887 487.688C348.67 492.45 344.536 496.524 339.704 499.585C334.871 502.646 329.575 504.546 324.183 505.237C320.811 505.669 318.65 508.292 318.074 511.206C327.088 514.598 337.177 513.633 345.768 508.557C354.302 503.515 360.536 494.9 362.908 484.889Z" fill="#FFD422"/>
<path d="M363.942 481.162L364.295 479.824C364.716 478.228 363.91 476.573 362.44 476.139C360.915 475.688 359.306 476.685 358.873 478.329L358.496 479.756C360.155 480.712 362.029 481.196 363.942 481.162Z" fill="#AA6100"/>
<path d="M331.806 518.817C331.561 519.701 329.326 520.318 326.817 519.622C324.309 518.927 322.476 517.182 322.721 516.298C322.966 515.414 325.199 515.26 327.707 515.956C330.216 516.651 332.051 517.932 331.806 518.817Z" fill="white"/>
<path d="M351.935 491.097C351.461 490.631 351.939 488.915 353.369 487.458C354.799 486.001 356.641 485.355 357.115 485.82C357.588 486.285 356.813 487.844 355.383 489.301C353.953 490.758 352.409 491.562 351.935 491.097Z" fill="white" fill-opacity="0.85"/>
<defs>
<filter id="filter0_d_2251_181" x="44.5859" y="277.534" width="464.92" height="473.995" filterUnits="userSpaceOnUse" color-interpolation-filters="sRGB">
<feFlood flood-opacity="0" result="BackgroundImageFix"/>
<feColorMatrix in="SourceAlpha" type="matrix" values="0 0 0 0 0 0 0 0 0 0 0 0 0 0 0 0 0 0 127 0" result="hardAlpha"/>
<feOffset dy="6.06641"/>
<feComposite in2="hardAlpha" operator="out"/>
<feColorMatrix type="matrix" values="0 0 0 0 1 0 0 0 0 0.787333 0 0 0 0 0.468333 0 0 0 1 0"/>
<feBlend mode="normal" in2="BackgroundImageFix" result="effect1_dropShadow_2251_181"/>
<feBlend mode="normal" in="SourceGraphic" in2="effect1_dropShadow_2251_181" result="shape"/>
</filter>
<filter id="filter1_d_2251_181" x="20.0078" y="206.568" width="117.914" height="138.6" filterUnits="userSpaceOnUse" color-interpolation-filters="sRGB">
<feFlood flood-opacity="0" result="BackgroundImageFix"/>
<feColorMatrix in="SourceAlpha" type="matrix" values="0 0 0 0 0 0 0 0 0 0 0 0 0 0 0 0 0 0 127 0" result="hardAlpha"/>
<feOffset dy="6.06641"/>
<feComposite in2="hardAlpha" operator="out"/>
<feColorMatrix type="matrix" values="0 0 0 0 0.886275 0 0 0 0 0.419608 0 0 0 0 0.117647 0 0 0 1 0"/>
<feBlend mode="normal" in2="BackgroundImageFix" result="effect1_dropShadow_2251_181"/>
<feBlend mode="normal" in="SourceGraphic" in2="effect1_dropShadow_2251_181" result="shape"/>
</filter>
<filter id="filter2_d_2251_181" x="418.711" y="209.199" width="119.156" height="139.473" filterUnits="userSpaceOnUse" color-interpolation-filters="sRGB">
<feFlood flood-opacity="0" result="BackgroundImageFix"/>
<feColorMatrix in="SourceAlpha" type="matrix" values="0 0 0 0 0 0 0 0 0 0 0 0 0 0 0 0 0 0 127 0" result="hardAlpha"/>
<feOffset dy="6.06641"/>
<feComposite in2="hardAlpha" operator="out"/>
<feColorMatrix type="matrix" values="0 0 0 0 0.886275 0 0 0 0 0.419608 0 0 0 0 0.117647 0 0 0 1 0"/>
<feBlend mode="normal" in2="BackgroundImageFix" result="effect1_dropShadow_2251_181"/>
<feBlend mode="normal" in="SourceGraphic" in2="effect1_dropShadow_2251_181" result="shape"/>
</filter>
<filter id="filter3_d_2251_181" x="73.335" y="166.438" width="409.753" height="158.495" filterUnits="userSpaceOnUse" color-interpolation-filters="sRGB">
<feFlood flood-opacity="0" result="BackgroundImageFix"/>
<feColorMatrix in="SourceAlpha" type="matrix" values="0 0 0 0 0 0 0 0 0 0 0 0 0 0 0 0 0 0 127 0" result="hardAlpha"/>
<feOffset dy="6.06641"/>
<feComposite in2="hardAlpha" operator="out"/>
<feColorMatrix type="matrix" values="0 0 0 0 0.886275 0 0 0 0 0.419608 0 0 0 0 0.117647 0 0 0 1 0"/>
<feBlend mode="normal" in2="BackgroundImageFix" result="effect1_dropShadow_2251_181"/>
<feBlend mode="normal" in="SourceGraphic" in2="effect1_dropShadow_2251_181" result="shape"/>
</filter>
<filter id="filter4_f_2251_181" x="148.487" y="408.551" width="52.6515" height="52.6514" filterUnits="userSpaceOnUse" color-interpolation-filters="sRGB">
<feFlood flood-opacity="0" result="BackgroundImageFix"/>
<feBlend mode="normal" in="SourceGraphic" in2="BackgroundImageFix" result="shape"/>
<feGaussianBlur stdDeviation="2.28764" result="effect1_foregroundBlur_2251_181"/>
</filter>
<filter id="filter5_f_2251_181" x="143.596" y="421.374" width="51.9428" height="48.8029" filterUnits="userSpaceOnUse" color-interpolation-filters="sRGB">
<feFlood flood-opacity="0" result="BackgroundImageFix"/>
<feBlend mode="normal" in="SourceGraphic" in2="BackgroundImageFix" result="shape"/>
<feGaussianBlur stdDeviation="6.70593" result="effect1_foregroundBlur_2251_181"/>
</filter>
<filter id="filter6_f_2251_181" x="331.552" y="408.551" width="52.6515" height="52.6514" filterUnits="userSpaceOnUse" color-interpolation-filters="sRGB">
<feFlood flood-opacity="0" result="BackgroundImageFix"/>
<feBlend mode="normal" in="SourceGraphic" in2="BackgroundImageFix" result="shape"/>
<feGaussianBlur stdDeviation="2.28764" result="effect1_foregroundBlur_2251_181"/>
</filter>
<filter id="filter7_f_2251_181" x="337.774" y="421.777" width="50.6872" height="47.9955" filterUnits="userSpaceOnUse" color-interpolation-filters="sRGB">
<feFlood flood-opacity="0" result="BackgroundImageFix"/>
<feBlend mode="normal" in="SourceGraphic" in2="BackgroundImageFix" result="shape"/>
<feGaussianBlur stdDeviation="6.50408" result="effect1_foregroundBlur_2251_181"/>
</filter>
<filter id="filter8_f_2251_181" x="411.205" y="462.013" width="30.7706" height="30.3224" filterUnits="userSpaceOnUse" color-interpolation-filters="sRGB">
<feFlood flood-opacity="0" result="BackgroundImageFix"/>
<feBlend mode="normal" in="SourceGraphic" in2="BackgroundImageFix" result="shape"/>
<feGaussianBlur stdDeviation="4.77713" result="effect1_foregroundBlur_2251_181"/>
</filter>
<filter id="filter9_f_2251_181" x="171.811" y="342.831" width="185.254" height="102.271" filterUnits="userSpaceOnUse" color-interpolation-filters="sRGB">
<feFlood flood-opacity="0" result="BackgroundImageFix"/>
<feBlend mode="normal" in="SourceGraphic" in2="BackgroundImageFix" result="shape"/>
<feGaussianBlur stdDeviation="8.07403" result="effect1_foregroundBlur_2251_181"/>
</filter>
<filter id="filter10_f_2251_181" x="296.108" y="460.847" width="42.3497" height="35.0991" filterUnits="userSpaceOnUse" color-interpolation-filters="sRGB">
<feFlood flood-opacity="0" result="BackgroundImageFix"/>
<feBlend mode="normal" in="SourceGraphic" in2="BackgroundImageFix" result="shape"/>
<feGaussianBlur stdDeviation="3.79031" result="effect1_foregroundBlur_2251_181"/>
</filter>
<filter id="filter11_f_2251_181" x="201.462" y="460.847" width="42.3497" height="35.0991" filterUnits="userSpaceOnUse" color-interpolation-filters="sRGB">
<feFlood flood-opacity="0" result="BackgroundImageFix"/>
<feBlend mode="normal" in="SourceGraphic" in2="BackgroundImageFix" result="shape"/>
<feGaussianBlur stdDeviation="3.79031" result="effect1_foregroundBlur_2251_181"/>
</filter>
<filter id="filter12_f_2251_181" x="211.258" y="539.78" width="24.0642" height="22.9013" filterUnits="userSpaceOnUse" color-interpolation-filters="sRGB">
<feFlood flood-opacity="0" result="BackgroundImageFix"/>
<feBlend mode="normal" in="SourceGraphic" in2="BackgroundImageFix" result="shape"/>
<feGaussianBlur stdDeviation="1.93452" result="effect1_foregroundBlur_2251_181"/>
</filter>
<filter id="filter13_f_2251_181" x="235.189" y="519.314" width="68.3412" height="79.3339" filterUnits="userSpaceOnUse" color-interpolation-filters="sRGB">
<feFlood flood-opacity="0" result="BackgroundImageFix"/>
<feBlend mode="normal" in="SourceGraphic" in2="BackgroundImageFix" result="shape"/>
<feGaussianBlur stdDeviation="6.99057" result="effect1_foregroundBlur_2251_181"/>
</filter>
<filter id="filter14_f_2251_181" x="333.692" y="496.82" width="20.9111" height="20.9111" filterUnits="userSpaceOnUse" color-interpolation-filters="sRGB">
<feFlood flood-opacity="0" result="BackgroundImageFix"/>
<feBlend mode="normal" in="SourceGraphic" in2="BackgroundImageFix" result="shape"/>
<feGaussianBlur stdDeviation="1.49365" result="effect1_foregroundBlur_2251_181"/>
</filter>
<linearGradient id="paint0_linear_2251_181" x1="210.739" y1="9.257" x2="235.485" y2="227.964" gradientUnits="userSpaceOnUse">
<stop stop-color="#FFDF6E" stop-opacity="0"/>
<stop offset="1" stop-color="#FFCD1B" stop-opacity="0.5"/>
</linearGradient>
<linearGradient id="paint1_linear_2251_181" x1="350.037" y1="8.39288" x2="324.4" y2="226.998" gradientUnits="userSpaceOnUse">
<stop stop-color="#FFDF6E" stop-opacity="0"/>
<stop offset="1" stop-color="#FFCD1B" stop-opacity="0.5"/>
</linearGradient>
<linearGradient id="paint2_linear_2251_181" x1="101.557" y1="62.1044" x2="155.072" y2="243.286" gradientUnits="userSpaceOnUse">
<stop stop-color="#FFDF6E" stop-opacity="0"/>
<stop offset="1" stop-color="#FFCD1B" stop-opacity="0.5"/>
</linearGradient>
<linearGradient id="paint3_linear_2251_181" x1="459.005" y1="61.6846" x2="404.752" y2="242.647" gradientUnits="userSpaceOnUse">
<stop stop-color="#FFDF6E" stop-opacity="0"/>
<stop offset="1" stop-color="#FFCD1B" stop-opacity="0.5"/>
</linearGradient>
<linearGradient id="paint4_linear_2251_181" x1="33.6045" y1="146.233" x2="94.8703" y2="266.467" gradientUnits="userSpaceOnUse">
<stop stop-color="#FFDF6E" stop-opacity="0"/>
<stop offset="1" stop-color="#FFCD1B" stop-opacity="0.5"/>
</linearGradient>
<linearGradient id="paint5_linear_2251_181" x1="526.612" y1="146.089" x2="464.856" y2="266.072" gradientUnits="userSpaceOnUse">
<stop stop-color="#FFDF6E" stop-opacity="0"/>
<stop offset="1" stop-color="#FFCD1B" stop-opacity="0.5"/>
</linearGradient>
<linearGradient id="paint6_linear_2251_181" x1="47.702" y1="144.221" x2="71.7268" y2="274.079" gradientUnits="userSpaceOnUse">
<stop stop-color="#FFCF25"/>
<stop offset="1" stop-color="#FD8C43"/>
</linearGradient>
<linearGradient id="paint7_linear_2251_181" x1="511.518" y1="147.792" x2="485.496" y2="277.265" gradientUnits="userSpaceOnUse">
<stop stop-color="#FFCF25"/>
<stop offset="1" stop-color="#FD8C43"/>
</linearGradient>
<linearGradient id="paint8_linear_2251_181" x1="279.437" y1="86.097" x2="278.188" y2="248.369" gradientUnits="userSpaceOnUse">
<stop stop-color="#FFCF25"/>
<stop offset="1" stop-color="#FD8C43"/>
</linearGradient>
<linearGradient id="paint9_linear_2251_181" x1="264.438" y1="358.979" x2="264.438" y2="428.954" gradientUnits="userSpaceOnUse">
<stop stop-color="#8F3B1B"/>
<stop offset="0.280912" stop-color="#A24A29" stop-opacity="0.94"/>
<stop offset="1" stop-color="#D2714C" stop-opacity="0.78"/>
</linearGradient>
</defs>
</svg>
