<svg width="275" height="134" viewBox="0 0 275 134" fill="none" xmlns="http://www.w3.org/2000/svg">
<g filter="url(#filter0_d_2296_176)">
<path d="M18.3611 22.1902L18.8332 21.5138C19.093 21.1415 19.3844 20.7897 19.7017 20.4649C21.1468 18.9854 22.8353 17.7514 24.6851 16.8265L24.9678 16.7156C26.9213 15.9496 29.001 15.5563 31.0993 15.5563H40.9427H51.1672H64.567L106.989 14.0322L121.024 13.0161L132.011 12H144.013H156.016H164.843H169.924H175.639H182.18H196.215H204.725H212.854H223.015C227.305 12 231.567 12.6917 235.638 14.0484L236.351 14.2862L243.591 16.89L248.798 19.1762L248.974 19.255C252.412 20.7963 255.14 23.5814 256.61 27.051C257.699 29.6072 258.261 32.3572 258.261 35.1359V37.1484V42.737V51.5008V52.0956C258.261 55.6289 257.934 59.1546 257.284 62.6277L256.61 66.2343L256.384 66.9722C255.017 71.4532 253.019 75.7166 250.449 79.634L248.64 82.5553L246.893 85.3747C246.851 85.4424 246.801 85.5053 246.746 85.5622C244.728 87.6197 241.967 88.7789 239.085 88.7789H236.351H226.571H217.109H213.534C211.153 88.7789 208.791 89.2104 206.564 90.0525C205.342 90.5145 204.175 91.1113 203.086 91.8318L201.179 93.0928C200.918 93.2649 200.673 93.4582 200.444 93.6708L196.215 97.6063L191.643 101.163L187.705 105.1L184.943 107.386L182.18 109.672L177.829 113.727C177.009 114.491 176.074 115.12 175.058 115.592C173.766 116.192 172.285 116.24 170.956 115.724L170.513 115.552C169.634 115.211 169.312 114.134 169.859 113.367L170.828 112.006C171.66 110.838 172.306 109.549 172.744 108.184L173.46 105.952C173.642 105.388 173.734 104.798 173.734 104.205V101.163L173.123 96.3325C173.065 95.8704 172.96 95.4153 172.811 94.974L172.345 93.592C171.732 91.7761 170.399 90.2918 168.66 89.4869L168.525 89.4247C167.606 88.9993 166.605 88.7789 165.592 88.7789H163.317C161.081 88.7789 158.851 89.0163 156.665 89.4869C152.771 90.325 148.8 90.7476 144.818 90.7476H138.425H125.342H115.181H102.798H90.414L75.8076 90.4301L66.2817 90.0491L50.7862 89.3505L40.2492 88.9382C37.5707 88.8334 34.9501 88.1265 32.5823 86.8701C30.8412 85.9463 29.2476 84.7681 27.854 83.3745L26.5178 82.0382C24.9205 80.441 23.5172 78.661 22.3368 76.7352L20.4937 73.728L17.0644 66.6153L14.9687 60.3282L14.9077 60.0545C13.6397 54.3693 13 48.5619 13 42.737V37.616C13 35.9976 13.1925 34.3849 13.5734 32.812C14.4955 29.0047 16.1191 25.4025 18.3611 22.1902Z" fill="white"/>
<path d="M23.1253 69.1562L15.2224 57.661C15.2224 60.6788 15.8257 63.6662 16.9968 66.4476L17.2546 67.0599L19.2868 70.8703L21.7 75.8238L22.1281 76.4989C24.0294 79.497 26.444 82.1369 29.2611 84.2973C32.012 86.4071 35.232 87.821 38.647 88.4186L41.0694 88.8425L48.4996 89.5411H56.4379H65.0112L74.1561 90.3032H85.5872L97.2088 91.0652H109.275H119.944H134.233H146.559C146.682 91.0652 146.805 91.0553 146.926 91.0355L157.667 89.2871L168.59 87.5089H156.968H143.187H126.231H112.831L100.321 86.1753L88.7625 85.2862H70.9173H66.2137C61.9524 85.2862 57.7032 84.8338 53.5374 83.9365L46.6476 82.4526C44.4149 81.9717 42.2282 81.2974 40.1123 80.4374L36.5935 79.0072C34.5033 78.1576 32.5125 77.0813 30.6568 75.7977L27.7272 73.7712C25.9257 72.5251 24.3663 70.9612 23.1253 69.1562Z" fill="#E2F2F5" stroke="#EFF8FA" stroke-width="0.127012"/>
<path d="M214.01 86.7233L209.678 89.287H214.124H216.664H219.966H223.586H227.714H231.271H235.017H238.333C238.493 89.287 238.653 89.2702 238.809 89.237L241.559 88.652L243.839 87.968C244.011 87.9161 244.178 87.8439 244.334 87.753L245.623 87.0008L246.772 86.1393C247.019 85.9535 247.227 85.7193 247.381 85.451L248.354 83.762L248.424 83.625C249.389 81.7346 250.598 79.9791 252.02 78.4033C252.158 78.251 252.27 78.0782 252.354 77.891L253.625 75.0616L255.339 70.0447L256.546 66.3613L258.097 61.2902C258.163 61.0735 258.197 60.8481 258.197 60.6214V55.6288V44.1342L254.831 55.6288L252.278 65.2813C252.244 65.4083 252.2 65.5323 252.145 65.6517L250.673 68.8539C248.413 73.7698 244.318 77.6055 239.265 79.54L236.239 80.6985C236.102 80.7508 235.961 80.7899 235.817 80.8152L224.741 82.7577C220.954 83.4217 217.319 84.7652 214.01 86.7233Z" fill="#E2F2F5" stroke="#EFF8FA" stroke-width="0.127012"/>
</g>
<path d="M49.8829 58.352C48.9869 58.352 48.0695 58.2773 47.1309 58.128C46.2135 58 45.3282 57.808 44.4749 57.552C43.6429 57.296 42.8962 56.976 42.2349 56.592C41.7655 56.336 41.4349 56.0053 41.2429 55.6C41.0509 55.1733 40.9762 54.7467 41.0189 54.32C41.0829 53.8933 41.2429 53.52 41.4989 53.2C41.7762 52.8587 42.1175 52.6453 42.5229 52.56C42.9495 52.4533 43.4189 52.528 43.9309 52.784C44.8055 53.2747 45.7549 53.6373 46.7789 53.872C47.8242 54.1067 48.8589 54.224 49.8829 54.224C51.4402 54.224 52.5495 53.9893 53.2109 53.52C53.8722 53.0293 54.2029 52.4213 54.2029 51.696C54.2029 51.0773 53.9682 50.5867 53.4989 50.224C53.0295 49.8613 52.2082 49.552 51.0349 49.296L47.4189 48.528C45.3709 48.1013 43.8455 47.376 42.8429 46.352C41.8615 45.3067 41.3709 43.9413 41.3709 42.256C41.3709 41.1893 41.5949 40.2187 42.0429 39.344C42.4909 38.4693 43.1202 37.712 43.9309 37.072C44.7415 36.432 45.7015 35.9413 46.8109 35.6C47.9415 35.2587 49.1789 35.088 50.5229 35.088C51.7175 35.088 52.8909 35.2373 54.0429 35.536C55.1949 35.8133 56.2082 36.2293 57.0829 36.784C57.5095 37.04 57.7975 37.3707 57.9469 37.776C58.1175 38.16 58.1709 38.5547 58.1069 38.96C58.0642 39.344 57.9042 39.6853 57.6269 39.984C57.3709 40.2827 57.0402 40.4747 56.6349 40.56C56.2295 40.6453 55.7389 40.5493 55.1629 40.272C54.4589 39.9093 53.7122 39.6427 52.9229 39.472C52.1335 39.3013 51.3229 39.216 50.4909 39.216C49.5949 39.216 48.8269 39.3333 48.1869 39.568C47.5682 39.8027 47.0882 40.1333 46.7469 40.56C46.4269 40.9867 46.2669 41.4773 46.2669 42.032C46.2669 42.6507 46.4909 43.152 46.9389 43.536C47.3869 43.92 48.1655 44.2293 49.2749 44.464L52.8909 45.232C54.9815 45.68 56.5389 46.4053 57.5629 47.408C58.5869 48.3893 59.0989 49.6907 59.0989 51.312C59.0989 52.3787 58.8855 53.3493 58.4589 54.224C58.0322 55.0773 57.4135 55.8133 56.6029 56.432C55.7922 57.0507 54.8215 57.5307 53.6909 57.872C52.5602 58.192 51.2909 58.352 49.8829 58.352ZM70.0629 58.352C68.2069 58.352 66.6069 58.0213 65.2629 57.36C63.9402 56.6773 62.9162 55.728 62.1909 54.512C61.4869 53.2747 61.1349 51.824 61.1349 50.16C61.1349 48.5387 61.4762 47.12 62.1589 45.904C62.8415 44.6667 63.7909 43.7067 65.0069 43.024C66.2442 42.32 67.6415 41.968 69.1989 41.968C70.3295 41.968 71.3535 42.16 72.2709 42.544C73.1882 42.9067 73.9775 43.44 74.6389 44.144C75.3002 44.8267 75.8015 45.6693 76.1429 46.672C76.4842 47.6533 76.6549 48.752 76.6549 49.968C76.6549 50.3733 76.5269 50.6827 76.2709 50.896C76.0149 51.088 75.6415 51.184 75.1509 51.184H65.1029V48.688H73.1669L72.6549 49.136C72.6549 48.2613 72.5269 47.536 72.2709 46.96C72.0149 46.3627 71.6415 45.9147 71.1509 45.616C70.6815 45.3173 70.0949 45.168 69.3909 45.168C68.6015 45.168 67.9295 45.3493 67.3749 45.712C66.8202 46.0747 66.3935 46.5973 66.0949 47.28C65.7962 47.9627 65.6469 48.784 65.6469 49.744V50C65.6469 51.6213 66.0202 52.816 66.7669 53.584C67.5349 54.352 68.6655 54.736 70.1589 54.736C70.6709 54.736 71.2575 54.672 71.9189 54.544C72.5802 54.416 73.1989 54.2133 73.7749 53.936C74.2655 53.7013 74.7029 53.6267 75.0869 53.712C75.4709 53.776 75.7695 53.9467 75.9829 54.224C76.1962 54.5013 76.3135 54.8213 76.3349 55.184C76.3775 55.5467 76.3029 55.9093 76.1109 56.272C75.9189 56.6133 75.5989 56.9013 75.1509 57.136C74.4255 57.5413 73.6042 57.84 72.6869 58.032C71.7909 58.2453 70.9162 58.352 70.0629 58.352ZM85.1294 58.352C83.2307 58.352 81.812 57.8293 80.8734 56.784C79.9347 55.7173 79.4654 54.1387 79.4654 52.048V37.616C79.4654 36.8053 79.668 36.1973 80.0734 35.792C80.5 35.3653 81.108 35.152 81.8974 35.152C82.6654 35.152 83.252 35.3653 83.6574 35.792C84.084 36.1973 84.2974 36.8053 84.2974 37.616V51.856C84.2974 52.7307 84.4787 53.3813 84.8414 53.808C85.2254 54.2133 85.7267 54.416 86.3454 54.416C86.516 54.416 86.676 54.4053 86.8254 54.384C86.9747 54.3627 87.1347 54.352 87.3054 54.352C87.6467 54.3093 87.8814 54.416 88.0094 54.672C88.1587 54.9067 88.2334 55.3867 88.2334 56.112C88.2334 56.752 88.1054 57.2427 87.8494 57.584C87.5934 57.904 87.1987 58.1173 86.6654 58.224C86.452 58.2453 86.2067 58.2667 85.9294 58.288C85.652 58.3307 85.3854 58.352 85.1294 58.352ZM98.1254 58.352C96.2694 58.352 94.6694 58.0213 93.3254 57.36C92.0027 56.6773 90.9787 55.728 90.2534 54.512C89.5494 53.2747 89.1974 51.824 89.1974 50.16C89.1974 48.5387 89.5387 47.12 90.2214 45.904C90.904 44.6667 91.8534 43.7067 93.0694 43.024C94.3067 42.32 95.704 41.968 97.2614 41.968C98.392 41.968 99.416 42.16 100.333 42.544C101.251 42.9067 102.04 43.44 102.701 44.144C103.363 44.8267 103.864 45.6693 104.205 46.672C104.547 47.6533 104.717 48.752 104.717 49.968C104.717 50.3733 104.589 50.6827 104.333 50.896C104.077 51.088 103.704 51.184 103.213 51.184H93.1654V48.688H101.229L100.717 49.136C100.717 48.2613 100.589 47.536 100.333 46.96C100.077 46.3627 99.704 45.9147 99.2134 45.616C98.744 45.3173 98.1574 45.168 97.4534 45.168C96.664 45.168 95.992 45.3493 95.4374 45.712C94.8827 46.0747 94.456 46.5973 94.1574 47.28C93.8587 47.9627 93.7094 48.784 93.7094 49.744V50C93.7094 51.6213 94.0827 52.816 94.8294 53.584C95.5974 54.352 96.728 54.736 98.2214 54.736C98.7334 54.736 99.32 54.672 99.9814 54.544C100.643 54.416 101.261 54.2133 101.837 53.936C102.328 53.7013 102.765 53.6267 103.149 53.712C103.533 53.776 103.832 53.9467 104.045 54.224C104.259 54.5013 104.376 54.8213 104.397 55.184C104.44 55.5467 104.365 55.9093 104.173 56.272C103.981 56.6133 103.661 56.9013 103.213 57.136C102.488 57.5413 101.667 57.84 100.749 58.032C99.8534 58.2453 98.9787 58.352 98.1254 58.352ZM115.176 58.352C113.469 58.352 111.976 58.0213 110.696 57.36C109.437 56.6773 108.467 55.7173 107.784 54.48C107.101 53.2427 106.76 51.7813 106.76 50.096C106.76 48.8373 106.952 47.7067 107.336 46.704C107.72 45.7013 108.275 44.848 109 44.144C109.747 43.44 110.643 42.9067 111.688 42.544C112.733 42.16 113.896 41.968 115.176 41.968C115.837 41.968 116.541 42.0533 117.288 42.224C118.035 42.3733 118.771 42.64 119.496 43.024C119.923 43.216 120.211 43.4933 120.36 43.856C120.531 44.1973 120.595 44.56 120.552 44.944C120.509 45.3067 120.371 45.6373 120.136 45.936C119.923 46.2133 119.645 46.4053 119.304 46.512C118.963 46.5973 118.579 46.5333 118.152 46.32C117.747 46.0853 117.32 45.9147 116.872 45.808C116.445 45.7013 116.04 45.648 115.656 45.648C115.016 45.648 114.451 45.7547 113.96 45.968C113.469 46.16 113.053 46.448 112.712 46.832C112.392 47.1947 112.136 47.6533 111.944 48.208C111.773 48.7627 111.688 49.4027 111.688 50.128C111.688 51.536 112.029 52.6453 112.712 53.456C113.416 54.2453 114.397 54.64 115.656 54.64C116.04 54.64 116.445 54.5973 116.872 54.512C117.299 54.4053 117.725 54.2347 118.152 54C118.579 53.7867 118.963 53.7333 119.304 53.84C119.645 53.9467 119.912 54.1493 120.104 54.448C120.317 54.7253 120.435 55.056 120.456 55.44C120.499 55.8027 120.435 56.1653 120.264 56.528C120.115 56.8693 119.837 57.136 119.432 57.328C118.707 57.6907 117.981 57.9467 117.256 58.096C116.531 58.2667 115.837 58.352 115.176 58.352ZM130.615 58.352C129.143 58.352 127.906 58.1067 126.903 57.616C125.922 57.1253 125.186 56.4107 124.695 55.472C124.226 54.5333 123.991 53.3493 123.991 51.92V45.904H122.647C122.05 45.904 121.58 45.744 121.239 45.424C120.919 45.104 120.759 44.6667 120.759 44.112C120.759 43.5147 120.919 43.0667 121.239 42.768C121.58 42.448 122.05 42.288 122.647 42.288H123.991V39.856C123.991 39.0453 124.204 38.4373 124.631 38.032C125.058 37.6053 125.655 37.392 126.423 37.392C127.212 37.392 127.81 37.6053 128.215 38.032C128.62 38.4373 128.823 39.0453 128.823 39.856V42.288H131.863C132.46 42.288 132.919 42.448 133.239 42.768C133.559 43.0667 133.719 43.5147 133.719 44.112C133.719 44.6667 133.559 45.104 133.239 45.424C132.919 45.744 132.46 45.904 131.863 45.904H128.823V51.728C128.823 52.624 129.026 53.296 129.431 53.744C129.858 54.192 130.53 54.416 131.447 54.416C131.767 54.416 132.066 54.384 132.343 54.32C132.62 54.256 132.876 54.2133 133.111 54.192C133.41 54.1707 133.655 54.2667 133.847 54.48C134.039 54.672 134.135 55.1093 134.135 55.792C134.135 56.304 134.05 56.752 133.879 57.136C133.708 57.52 133.41 57.7973 132.983 57.968C132.706 58.0747 132.322 58.16 131.831 58.224C131.362 58.3093 130.956 58.352 130.615 58.352ZM150.09 58.352C148.938 58.352 147.903 58.128 146.986 57.68C146.069 57.232 145.354 56.624 144.842 55.856C144.33 55.088 144.074 54.224 144.074 53.264C144.074 52.112 144.373 51.2053 144.97 50.544C145.567 49.8613 146.538 49.3813 147.882 49.104C149.226 48.8053 151.007 48.656 153.226 48.656H154.922V51.152H153.258C152.17 51.152 151.285 51.216 150.602 51.344C149.941 51.4507 149.461 51.6427 149.162 51.92C148.885 52.1973 148.746 52.5813 148.746 53.072C148.746 53.6693 148.949 54.16 149.354 54.544C149.781 54.928 150.389 55.12 151.178 55.12C151.797 55.12 152.341 54.9813 152.81 54.704C153.301 54.4053 153.685 54.0107 153.962 53.52C154.239 53.008 154.378 52.432 154.378 51.792V48.112C154.378 47.1733 154.165 46.512 153.738 46.128C153.311 45.7227 152.586 45.52 151.562 45.52C150.986 45.52 150.357 45.5947 149.674 45.744C149.013 45.872 148.277 46.096 147.466 46.416C146.997 46.6293 146.581 46.6827 146.218 46.576C145.855 46.448 145.578 46.2347 145.386 45.936C145.194 45.616 145.098 45.2747 145.098 44.912C145.098 44.528 145.205 44.1653 145.418 43.824C145.631 43.4613 145.983 43.1947 146.474 43.024C147.477 42.6187 148.415 42.3413 149.29 42.192C150.186 42.0427 151.007 41.968 151.754 41.968C153.397 41.968 154.741 42.2133 155.786 42.704C156.853 43.1733 157.653 43.9093 158.186 44.912C158.719 45.8933 158.986 47.1627 158.986 48.72V55.824C158.986 56.6133 158.794 57.2213 158.41 57.648C158.026 58.0747 157.471 58.288 156.746 58.288C156.021 58.288 155.455 58.0747 155.05 57.648C154.666 57.2213 154.474 56.6133 154.474 55.824V54.64L154.698 54.832C154.57 55.5573 154.293 56.1867 153.866 56.72C153.461 57.232 152.938 57.6373 152.298 57.936C151.658 58.2133 150.922 58.352 150.09 58.352ZM179.176 58.352C177.469 58.352 175.976 58.0213 174.696 57.36C173.437 56.6773 172.467 55.7173 171.784 54.48C171.101 53.2427 170.76 51.7813 170.76 50.096C170.76 48.8373 170.952 47.7067 171.336 46.704C171.72 45.7013 172.275 44.848 173 44.144C173.747 43.44 174.643 42.9067 175.688 42.544C176.733 42.16 177.896 41.968 179.176 41.968C179.837 41.968 180.541 42.0533 181.288 42.224C182.035 42.3733 182.771 42.64 183.496 43.024C183.923 43.216 184.211 43.4933 184.36 43.856C184.531 44.1973 184.595 44.56 184.552 44.944C184.509 45.3067 184.371 45.6373 184.136 45.936C183.923 46.2133 183.645 46.4053 183.304 46.512C182.963 46.5973 182.579 46.5333 182.152 46.32C181.747 46.0853 181.32 45.9147 180.872 45.808C180.445 45.7013 180.04 45.648 179.656 45.648C179.016 45.648 178.451 45.7547 177.96 45.968C177.469 46.16 177.053 46.448 176.712 46.832C176.392 47.1947 176.136 47.6533 175.944 48.208C175.773 48.7627 175.688 49.4027 175.688 50.128C175.688 51.536 176.029 52.6453 176.712 53.456C177.416 54.2453 178.397 54.64 179.656 54.64C180.04 54.64 180.445 54.5973 180.872 54.512C181.299 54.4053 181.725 54.2347 182.152 54C182.579 53.7867 182.963 53.7333 183.304 53.84C183.645 53.9467 183.912 54.1493 184.104 54.448C184.317 54.7253 184.435 55.056 184.456 55.44C184.499 55.8027 184.435 56.1653 184.264 56.528C184.115 56.8693 183.837 57.136 183.432 57.328C182.707 57.6907 181.981 57.9467 181.256 58.096C180.531 58.2667 179.837 58.352 179.176 58.352ZM192.059 58.352C190.907 58.352 189.872 58.128 188.955 57.68C188.037 57.232 187.323 56.624 186.811 55.856C186.299 55.088 186.043 54.224 186.043 53.264C186.043 52.112 186.341 51.2053 186.939 50.544C187.536 49.8613 188.507 49.3813 189.851 49.104C191.195 48.8053 192.976 48.656 195.195 48.656H196.891V51.152H195.227C194.139 51.152 193.253 51.216 192.571 51.344C191.909 51.4507 191.429 51.6427 191.131 51.92C190.853 52.1973 190.715 52.5813 190.715 53.072C190.715 53.6693 190.917 54.16 191.323 54.544C191.749 54.928 192.357 55.12 193.147 55.12C193.765 55.12 194.309 54.9813 194.779 54.704C195.269 54.4053 195.653 54.0107 195.931 53.52C196.208 53.008 196.347 52.432 196.347 51.792V48.112C196.347 47.1733 196.133 46.512 195.707 46.128C195.28 45.7227 194.555 45.52 193.531 45.52C192.955 45.52 192.325 45.5947 191.643 45.744C190.981 45.872 190.245 46.096 189.435 46.416C188.965 46.6293 188.549 46.6827 188.187 46.576C187.824 46.448 187.547 46.2347 187.355 45.936C187.163 45.616 187.067 45.2747 187.067 44.912C187.067 44.528 187.173 44.1653 187.387 43.824C187.6 43.4613 187.952 43.1947 188.443 43.024C189.445 42.6187 190.384 42.3413 191.259 42.192C192.155 42.0427 192.976 41.968 193.723 41.968C195.365 41.968 196.709 42.2133 197.755 42.704C198.821 43.1733 199.621 43.9093 200.155 44.912C200.688 45.8933 200.955 47.1627 200.955 48.72V55.824C200.955 56.6133 200.763 57.2213 200.379 57.648C199.995 58.0747 199.44 58.288 198.715 58.288C197.989 58.288 197.424 58.0747 197.019 57.648C196.635 57.2213 196.443 56.6133 196.443 55.824V54.64L196.667 54.832C196.539 55.5573 196.261 56.1867 195.835 56.72C195.429 57.232 194.907 57.6373 194.267 57.936C193.627 58.2133 192.891 58.352 192.059 58.352ZM207.055 58.288C206.244 58.288 205.626 58.0747 205.199 57.648C204.772 57.2213 204.559 56.6133 204.559 55.824V44.464C204.559 43.6747 204.762 43.0773 205.167 42.672C205.594 42.2453 206.18 42.032 206.927 42.032C207.695 42.032 208.282 42.2453 208.687 42.672C209.092 43.0773 209.295 43.6747 209.295 44.464V46.128H208.975C209.231 44.848 209.796 43.856 210.671 43.152C211.546 42.448 212.676 42.0533 214.063 41.968C214.596 41.9253 215.002 42.064 215.279 42.384C215.578 42.6827 215.738 43.184 215.759 43.888C215.802 44.5493 215.663 45.072 215.343 45.456C215.044 45.84 214.532 46.0747 213.807 46.16L213.071 46.224C211.855 46.3307 210.948 46.6827 210.351 47.28C209.775 47.8773 209.487 48.7413 209.487 49.872V55.824C209.487 56.6133 209.274 57.2213 208.847 57.648C208.442 58.0747 207.844 58.288 207.055 58.288ZM223.577 58.352C222.212 58.352 221.007 58.0213 219.961 57.36C218.937 56.6987 218.137 55.7493 217.561 54.512C216.985 53.2747 216.697 51.8133 216.697 50.128C216.697 48.4427 216.985 46.992 217.561 45.776C218.137 44.56 218.937 43.6213 219.961 42.96C221.007 42.2987 222.212 41.968 223.577 41.968C224.815 41.968 225.903 42.2667 226.841 42.864C227.801 43.4613 228.452 44.24 228.793 45.2H228.441V37.616C228.441 36.8053 228.644 36.1973 229.049 35.792C229.455 35.3653 230.052 35.152 230.841 35.152C231.609 35.152 232.207 35.3653 232.633 35.792C233.06 36.1973 233.273 36.8053 233.273 37.616V55.824C233.273 56.6133 233.06 57.2213 232.633 57.648C232.228 58.0747 231.641 58.288 230.873 58.288C230.105 58.288 229.508 58.0747 229.081 57.648C228.676 57.2213 228.473 56.6133 228.473 55.824V53.648L228.825 54.896C228.527 55.9413 227.887 56.784 226.905 57.424C225.945 58.0427 224.836 58.352 223.577 58.352ZM225.017 54.736C225.721 54.736 226.329 54.5653 226.841 54.224C227.353 53.8827 227.759 53.3813 228.057 52.72C228.356 52.0373 228.505 51.1733 228.505 50.128C228.505 48.5707 228.185 47.4293 227.545 46.704C226.905 45.9573 226.063 45.584 225.017 45.584C224.335 45.584 223.727 45.744 223.193 46.064C222.681 46.384 222.276 46.8853 221.977 47.568C221.7 48.2293 221.561 49.0827 221.561 50.128C221.561 51.6853 221.881 52.848 222.521 53.616C223.161 54.3627 223.993 54.736 225.017 54.736ZM239.333 58.16C238.479 58.16 237.797 57.904 237.285 57.392C236.794 56.88 236.549 56.2187 236.549 55.408C236.549 54.6187 236.794 53.9787 237.285 53.488C237.797 52.976 238.479 52.72 239.333 52.72C240.186 52.72 240.847 52.976 241.317 53.488C241.807 53.9787 242.053 54.6187 242.053 55.408C242.053 56.2187 241.807 56.88 241.317 57.392C240.847 57.904 240.186 58.16 239.333 58.16Z" fill="#11AEC6"/>
<defs>
<filter id="filter0_d_2296_176" x="0.308353" y="0.73438" width="273.496" height="132.315" filterUnits="userSpaceOnUse" color-interpolation-filters="sRGB">
<feFlood flood-opacity="0" result="BackgroundImageFix"/>
<feColorMatrix in="SourceAlpha" type="matrix" values="0 0 0 0 0 0 0 0 0 0 0 0 0 0 0 0 0 0 127 0" result="hardAlpha"/>
<feOffset dx="1.42603" dy="2.85206"/>
<feGaussianBlur stdDeviation="7.05884"/>
<feComposite in2="hardAlpha" operator="out"/>
<feColorMatrix type="matrix" values="0 0 0 0 0.40901 0 0 0 0 0.878348 0 0 0 0 0.950984 0 0 0 1 0"/>
<feBlend mode="normal" in2="BackgroundImageFix" result="effect1_dropShadow_2296_176"/>
<feBlend mode="normal" in="SourceGraphic" in2="effect1_dropShadow_2296_176" result="shape"/>
</filter>
</defs>
</svg>
