<svg width="291" height="151" viewBox="0 0 291 151" fill="none" xmlns="http://www.w3.org/2000/svg">
<g filter="url(#filter0_d_2297_177)">
<path d="M269.413 23.764L269.002 23.1189C268.738 22.7045 268.442 22.312 268.115 21.9453L268.02 21.8393C266.52 20.1557 264.743 18.7414 262.766 17.6576L262.422 17.5097C260.364 16.625 258.147 16.1687 255.907 16.1687H245.381H234.448H220.119L174.757 14.3821L159.749 13.1911L148.001 12H135.167H122.332H112.893H107.46H101.348H94.3538H79.3461H70.2465H61.5542H50.6889C46.1068 12 41.5603 12.8046 37.2564 14.3773L36.4283 14.6799L28.6868 17.732L23.1183 20.4119C19.3196 22.2786 16.3633 25.5075 14.8379 29.4556L14.7656 29.6427C13.5987 32.6438 13 35.8358 13 39.0558V41.4789V48.0298V58.3028V60.3738C13 63.6027 13.273 66.8259 13.8161 70.0088L14.7656 75.5733L15.4215 77.93C16.6087 82.1957 18.3624 86.2829 20.6359 90.0825L21.3527 91.2805L23.2881 94.7048L25.1627 98.0216C25.2031 98.093 25.2511 98.16 25.3058 98.2212C27.4571 100.626 30.5309 102 33.7573 102H36.4283H46.8861H57.0044H60.7313C63.3369 102 65.9169 102.514 68.324 103.511C69.6012 104.04 70.812 104.718 71.9313 105.529L74.051 107.066C74.321 107.261 74.5741 107.48 74.8076 107.718L79.3461 112.347L84.2355 116.516L88.4458 121.132L91.3998 123.812L94.3538 126.491L99.0867 131.326C99.9099 132.167 100.865 132.868 101.913 133.402C103.32 134.118 104.972 134.174 106.424 133.556L107.012 133.306C107.883 132.936 108.209 131.868 107.693 131.073L106.509 129.251C105.609 127.865 104.915 126.356 104.451 124.769L103.667 122.093C103.48 121.455 103.386 120.794 103.386 120.13V116.516L104.059 110.68C104.108 110.254 104.196 109.834 104.322 109.424L105.026 107.141C105.583 105.33 106.852 103.824 108.542 102.967L108.958 102.756C109.938 102.259 111.02 102 112.118 102H114.508C116.909 102 119.302 102.279 121.638 102.83C125.799 103.812 130.059 104.308 134.334 104.308H141.142H155.131H165.997H179.239H192.481L208.1 103.936L218.286 103.489L234.855 102.67L245.925 102.195C248.913 102.067 251.825 101.214 254.41 99.7106C256.212 98.6624 257.844 97.3455 259.249 95.8053L260.879 94.0187C262.539 92.1992 263.984 90.195 265.186 88.0454L267.248 84.3574L270.915 76.0199L273.156 68.6502L273.501 66.9501C274.671 61.1998 275.261 55.3464 275.261 49.4783V48.0298V41.9605C275.261 40.1065 275.059 38.258 274.659 36.4476C273.664 31.9458 271.889 27.653 269.413 23.764Z" fill="white"/>
<path d="M264.179 79.4035L272.884 65.5237C272.884 69.0667 272.233 72.5795 270.962 75.8869L270.711 76.5411L268.538 81.0076L265.957 86.814L265.299 87.9527C263.398 91.238 260.94 94.1674 258.035 96.6098C254.992 99.1681 251.345 100.905 247.44 101.654L245.245 102.075L237.3 102.893H228.812H219.644L209.865 103.787H197.642L185.215 104.68H172.312H160.904H145.624H132.449C132.314 104.68 132.18 104.668 132.047 104.644L120.566 102.596L108.886 100.511H121.313H136.049H154.181H168.509L181.887 98.948L194.247 97.9058H213.329H218.202C222.86 97.9058 227.502 97.3652 232.036 96.2948L239.27 94.5869C241.664 94.0216 244 93.2332 246.247 92.2321L250.143 90.4959C252.304 89.5333 254.346 88.3257 256.231 86.8967L259.797 84.1921C261.535 82.8741 263.02 81.2516 264.179 79.4035Z" fill="#E2F2F5" stroke="#EFF8FA" stroke-width="0.127012"/>
<path d="M60.188 99.5064L64.9495 102.596H60.1959H57.4796H53.9484H50.0776H45.6636H41.8607H37.8542H34.3144C34.1396 102.596 33.9654 102.576 33.7951 102.536L30.8596 101.851L28.4175 101.048C28.2355 100.988 28.0616 100.906 27.9001 100.802L26.5135 99.9157L25.2409 98.8693C25.0052 98.6755 24.8106 98.4365 24.6688 98.1664L23.5935 96.1191L23.4768 95.8686C22.4721 93.7118 21.1843 91.6737 19.6721 89.8367C19.5265 89.6598 19.4069 89.4605 19.3201 89.2485L17.9571 85.9206L16.1236 80.0397L14.8334 75.7221L13.1519 69.696C13.096 69.496 13.0677 69.2892 13.0677 69.0816V63.1414V49.6675L16.6669 63.1414L19.408 74.5013C19.4367 74.6202 19.4749 74.7366 19.5221 74.8493L21.6096 79.8263C23.708 84.8296 27.6867 88.8092 32.6894 90.9088L36.5482 92.5283C36.6941 92.5895 36.846 92.6354 37.0013 92.6653L48.8553 94.9442C52.8917 95.7202 56.7399 97.2694 60.188 99.5064Z" fill="#E2F2F5" stroke="#EFF8FA" stroke-width="0.127012"/>
</g>
<path d="M57.701 44.288C56.9543 44.288 56.3783 44.0853 55.973 43.68C55.589 43.2533 55.397 42.656 55.397 41.888V23.648C55.397 22.8373 55.589 22.2187 55.973 21.792C56.3783 21.3653 56.9117 21.152 57.573 21.152C58.149 21.152 58.5863 21.2693 58.885 21.504C59.205 21.7173 59.5677 22.08 59.973 22.592L71.205 36.896H70.341V23.52C70.341 22.7733 70.533 22.1973 70.917 21.792C71.3223 21.3653 71.8983 21.152 72.645 21.152C73.3917 21.152 73.957 21.3653 74.341 21.792C74.7463 22.1973 74.949 22.7733 74.949 23.52V41.984C74.949 42.688 74.7677 43.2533 74.405 43.68C74.0423 44.0853 73.5517 44.288 72.933 44.288C72.3357 44.288 71.8557 44.1707 71.493 43.936C71.1517 43.7013 70.7783 43.328 70.373 42.816L59.173 28.512H60.005V41.888C60.005 42.656 59.813 43.2533 59.429 43.68C59.045 44.0853 58.469 44.288 57.701 44.288ZM86.6267 44.352C84.9414 44.352 83.4694 44.0213 82.2108 43.36C80.9734 42.6987 80.0134 41.7493 79.3307 40.512C78.6481 39.2747 78.3068 37.8133 78.3068 36.128C78.3068 34.8693 78.4988 33.7387 78.8828 32.736C79.2668 31.7333 79.8214 30.88 80.5468 30.176C81.2934 29.4507 82.1788 28.9067 83.2028 28.544C84.2268 28.16 85.3681 27.968 86.6267 27.968C88.3121 27.968 89.7734 28.2987 91.0108 28.96C92.2694 29.6213 93.2401 30.56 93.9228 31.776C94.6268 32.992 94.9788 34.4427 94.9788 36.128C94.9788 37.408 94.7761 38.5493 94.3708 39.552C93.9868 40.5547 93.4321 41.4187 92.7068 42.144C91.9814 42.8693 91.0961 43.424 90.0508 43.808C89.0268 44.1707 87.8854 44.352 86.6267 44.352ZM86.6267 40.736C87.3308 40.736 87.9388 40.5653 88.4508 40.224C88.9628 39.8827 89.3681 39.3813 89.6668 38.72C89.9654 38.0373 90.1148 37.1733 90.1148 36.128C90.1148 34.5707 89.7948 33.4293 89.1548 32.704C88.5148 31.9573 87.6721 31.584 86.6267 31.584C85.9441 31.584 85.3361 31.744 84.8028 32.064C84.2908 32.384 83.8854 32.8853 83.5868 33.568C83.3094 34.2293 83.1708 35.0827 83.1708 36.128C83.1708 37.6853 83.4908 38.848 84.1308 39.616C84.7708 40.3627 85.6028 40.736 86.6267 40.736ZM104.008 44.288C103.368 44.288 102.824 44.1387 102.376 43.84C101.928 43.52 101.565 43.0187 101.288 42.336L96.7755 31.168C96.5408 30.5707 96.4662 30.048 96.5515 29.6C96.6368 29.1307 96.8608 28.7573 97.2235 28.48C97.6075 28.1813 98.1302 28.032 98.7915 28.032C99.3462 28.032 99.8048 28.1707 100.168 28.448C100.53 28.704 100.84 29.2053 101.096 29.952L104.616 39.328H103.88L107.528 29.536C107.698 29.024 107.944 28.6507 108.264 28.416C108.605 28.16 109.042 28.032 109.576 28.032C110.109 28.032 110.536 28.16 110.856 28.416C111.197 28.672 111.464 29.0453 111.656 29.536L115.24 39.328H114.632L118.12 29.824C118.376 29.1413 118.706 28.672 119.112 28.416C119.517 28.16 119.954 28.032 120.424 28.032C121.021 28.032 121.48 28.1813 121.8 28.48C122.141 28.7787 122.333 29.1627 122.376 29.632C122.44 30.1013 122.354 30.6133 122.12 31.168L117.64 42.336C117.384 42.9973 117.021 43.488 116.552 43.808C116.104 44.128 115.56 44.288 114.92 44.288C114.301 44.288 113.757 44.128 113.288 43.808C112.84 43.488 112.477 42.9973 112.2 42.336L108.36 32.352H110.44L106.696 42.304C106.44 42.9653 106.088 43.4667 105.64 43.808C105.192 44.128 104.648 44.288 104.008 44.288ZM140.06 44.352C139.121 44.352 138.15 44.2667 137.148 44.096C136.166 43.9253 135.27 43.6373 134.46 43.232C134.033 43.0187 133.724 42.752 133.532 42.432C133.361 42.0907 133.286 41.7493 133.308 41.408C133.329 41.0667 133.436 40.7573 133.628 40.48C133.841 40.2027 134.108 40.0213 134.428 39.936C134.769 39.8293 135.142 39.8613 135.548 40.032C136.422 40.3947 137.222 40.6507 137.948 40.8C138.673 40.9493 139.388 41.024 140.092 41.024C141.009 41.024 141.67 40.8853 142.076 40.608C142.502 40.3093 142.716 39.9253 142.716 39.456C142.716 39.0293 142.577 38.7093 142.3 38.496C142.022 38.2827 141.617 38.1333 141.084 38.048L137.724 37.44C136.401 37.2053 135.377 36.7253 134.652 36C133.948 35.2533 133.596 34.304 133.596 33.152C133.596 32.0853 133.894 31.168 134.492 30.4C135.089 29.6107 135.91 29.0133 136.956 28.608C138.022 28.1813 139.228 27.968 140.572 27.968C141.532 27.968 142.417 28.0533 143.228 28.224C144.038 28.3947 144.817 28.672 145.564 29.056C145.948 29.248 146.214 29.504 146.364 29.824C146.534 30.144 146.588 30.4747 146.524 30.816C146.481 31.1573 146.353 31.4667 146.14 31.744C145.926 32.0213 145.649 32.2027 145.308 32.288C144.988 32.3733 144.614 32.3307 144.188 32.16C143.505 31.84 142.876 31.616 142.3 31.488C141.724 31.3387 141.169 31.264 140.635 31.264C139.676 31.264 138.982 31.424 138.556 31.744C138.129 32.0427 137.916 32.4267 137.916 32.896C137.916 33.2587 138.033 33.568 138.268 33.824C138.524 34.0587 138.908 34.2187 139.42 34.304L142.78 34.912C144.166 35.1467 145.222 35.616 145.948 36.32C146.673 37.0027 147.036 37.9413 147.036 39.136C147.036 40.7573 146.396 42.0373 145.116 42.976C143.857 43.8933 142.172 44.352 140.06 44.352ZM157.954 44.352C156.098 44.352 154.498 44.0213 153.154 43.36C151.831 42.6773 150.807 41.728 150.082 40.512C149.378 39.2747 149.026 37.824 149.026 36.16C149.026 34.5387 149.367 33.12 150.049 31.904C150.732 30.6667 151.682 29.7067 152.898 29.024C154.135 28.32 155.532 27.968 157.09 27.968C158.22 27.968 159.244 28.16 160.162 28.544C161.079 28.9067 161.868 29.44 162.53 30.144C163.191 30.8267 163.692 31.6693 164.034 32.672C164.375 33.6533 164.546 34.752 164.546 35.968C164.546 36.3733 164.418 36.6827 164.162 36.896C163.906 37.088 163.532 37.184 163.042 37.184H152.994V34.688H161.058L160.546 35.136C160.546 34.2613 160.418 33.536 160.162 32.96C159.906 32.3627 159.532 31.9147 159.042 31.616C158.572 31.3173 157.986 31.168 157.282 31.168C156.492 31.168 155.82 31.3493 155.266 31.712C154.711 32.0747 154.284 32.5973 153.986 33.28C153.687 33.9627 153.538 34.784 153.538 35.744V36C153.538 37.6213 153.911 38.816 154.658 39.584C155.426 40.352 156.556 40.736 158.05 40.736C158.562 40.736 159.148 40.672 159.81 40.544C160.471 40.416 161.09 40.2133 161.666 39.936C162.156 39.7013 162.594 39.6267 162.978 39.712C163.362 39.776 163.66 39.9467 163.874 40.224C164.087 40.5013 164.204 40.8213 164.226 41.184C164.268 41.5467 164.194 41.9093 164.002 42.272C163.81 42.6133 163.49 42.9013 163.042 43.136C162.316 43.5413 161.495 43.84 160.578 44.032C159.682 44.2453 158.807 44.352 157.954 44.352ZM173.02 44.352C171.121 44.352 169.703 43.8293 168.764 42.784C167.825 41.7173 167.356 40.1387 167.356 38.048V23.616C167.356 22.8053 167.559 22.1973 167.964 21.792C168.391 21.3653 168.999 21.152 169.788 21.152C170.556 21.152 171.143 21.3653 171.548 21.792C171.975 22.1973 172.188 22.8053 172.188 23.616V37.856C172.188 38.7307 172.369 39.3813 172.732 39.808C173.116 40.2133 173.617 40.416 174.236 40.416C174.407 40.416 174.567 40.4053 174.716 40.384C174.865 40.3627 175.025 40.352 175.196 40.352C175.537 40.3093 175.772 40.416 175.9 40.672C176.049 40.9067 176.124 41.3867 176.124 42.112C176.124 42.752 175.996 43.2427 175.74 43.584C175.484 43.904 175.089 44.1173 174.556 44.224C174.343 44.2453 174.097 44.2667 173.82 44.288C173.543 44.3307 173.276 44.352 173.02 44.352ZM186.016 44.352C184.16 44.352 182.56 44.0213 181.216 43.36C179.893 42.6773 178.869 41.728 178.144 40.512C177.44 39.2747 177.088 37.824 177.088 36.16C177.088 34.5387 177.429 33.12 178.112 31.904C178.795 30.6667 179.744 29.7067 180.96 29.024C182.197 28.32 183.595 27.968 185.152 27.968C186.283 27.968 187.307 28.16 188.224 28.544C189.141 28.9067 189.931 29.44 190.592 30.144C191.253 30.8267 191.755 31.6693 192.096 32.672C192.437 33.6533 192.608 34.752 192.608 35.968C192.608 36.3733 192.48 36.6827 192.224 36.896C191.968 37.088 191.595 37.184 191.104 37.184H181.056V34.688H189.12L188.608 35.136C188.608 34.2613 188.48 33.536 188.224 32.96C187.968 32.3627 187.595 31.9147 187.104 31.616C186.635 31.3173 186.048 31.168 185.344 31.168C184.555 31.168 183.883 31.3493 183.328 31.712C182.773 32.0747 182.347 32.5973 182.048 33.28C181.749 33.9627 181.6 34.784 181.6 35.744V36C181.6 37.6213 181.973 38.816 182.72 39.584C183.488 40.352 184.619 40.736 186.112 40.736C186.624 40.736 187.211 40.672 187.872 40.544C188.533 40.416 189.152 40.2133 189.728 39.936C190.219 39.7013 190.656 39.6267 191.04 39.712C191.424 39.776 191.723 39.9467 191.936 40.224C192.149 40.5013 192.267 40.8213 192.288 41.184C192.331 41.5467 192.256 41.9093 192.064 42.272C191.872 42.6133 191.552 42.9013 191.104 43.136C190.379 43.5413 189.557 43.84 188.64 44.032C187.744 44.2453 186.869 44.352 186.016 44.352ZM203.067 44.352C201.36 44.352 199.867 44.0213 198.587 43.36C197.328 42.6773 196.357 41.7173 195.674 40.48C194.992 39.2427 194.651 37.7813 194.651 36.096C194.651 34.8373 194.843 33.7067 195.227 32.704C195.611 31.7013 196.165 30.848 196.891 30.144C197.637 29.44 198.533 28.9067 199.579 28.544C200.624 28.16 201.787 27.968 203.067 27.968C203.728 27.968 204.432 28.0533 205.179 28.224C205.925 28.3733 206.661 28.64 207.387 29.024C207.813 29.216 208.101 29.4933 208.251 29.856C208.421 30.1973 208.485 30.56 208.443 30.944C208.4 31.3067 208.261 31.6373 208.027 31.936C207.813 32.2133 207.536 32.4053 207.195 32.512C206.853 32.5973 206.469 32.5333 206.043 32.32C205.637 32.0853 205.211 31.9147 204.763 31.808C204.336 31.7013 203.931 31.648 203.547 31.648C202.907 31.648 202.341 31.7547 201.851 31.968C201.36 32.16 200.944 32.448 200.603 32.832C200.283 33.1947 200.027 33.6533 199.835 34.208C199.664 34.7627 199.579 35.4027 199.579 36.128C199.579 37.536 199.92 38.6453 200.603 39.456C201.307 40.2453 202.288 40.64 203.547 40.64C203.931 40.64 204.336 40.5973 204.763 40.512C205.189 40.4053 205.616 40.2347 206.043 40C206.469 39.7867 206.853 39.7333 207.195 39.84C207.536 39.9467 207.803 40.1493 207.995 40.448C208.208 40.7253 208.325 41.056 208.347 41.44C208.389 41.8027 208.325 42.1653 208.155 42.528C208.005 42.8693 207.728 43.136 207.323 43.328C206.597 43.6907 205.872 43.9467 205.147 44.096C204.421 44.2667 203.728 44.352 203.067 44.352ZM218.506 44.352C217.034 44.352 215.796 44.1067 214.794 43.616C213.812 43.1253 213.076 42.4107 212.586 41.472C212.116 40.5333 211.882 39.3493 211.882 37.92V31.904H210.538C209.94 31.904 209.471 31.744 209.13 31.424C208.809 31.104 208.649 30.6667 208.649 30.112C208.649 29.5147 208.809 29.0667 209.13 28.768C209.471 28.448 209.94 28.288 210.538 28.288H211.882V25.856C211.882 25.0453 212.095 24.4373 212.522 24.032C212.948 23.6053 213.546 23.392 214.314 23.392C215.103 23.392 215.7 23.6053 216.106 24.032C216.511 24.4373 216.714 25.0453 216.714 25.856V28.288H219.754C220.351 28.288 220.81 28.448 221.13 28.768C221.45 29.0667 221.61 29.5147 221.61 30.112C221.61 30.6667 221.45 31.104 221.13 31.424C220.81 31.744 220.351 31.904 219.754 31.904H216.714V37.728C216.714 38.624 216.916 39.296 217.322 39.744C217.748 40.192 218.42 40.416 219.338 40.416C219.658 40.416 219.956 40.384 220.234 40.32C220.511 40.256 220.767 40.2133 221.002 40.192C221.3 40.1707 221.546 40.2667 221.738 40.48C221.93 40.672 222.026 41.1093 222.026 41.792C222.026 42.304 221.94 42.752 221.77 43.136C221.599 43.52 221.3 43.7973 220.874 43.968C220.596 44.0747 220.212 44.16 219.722 44.224C219.252 44.3093 218.847 44.352 218.506 44.352ZM46.7001 88.352C45.7615 88.352 44.7908 88.2667 43.7881 88.096C42.8068 87.9253 41.9108 87.6373 41.1001 87.232C40.6735 87.0187 40.3641 86.752 40.1721 86.432C40.0015 86.0907 39.9268 85.7493 39.9481 85.408C39.9695 85.0667 40.0761 84.7573 40.2681 84.48C40.4815 84.2027 40.7481 84.0213 41.0681 83.936C41.4095 83.8293 41.7828 83.8613 42.1881 84.032C43.0628 84.3947 43.8628 84.6507 44.5881 84.8C45.3135 84.9493 46.0281 85.024 46.7321 85.024C47.6495 85.024 48.3108 84.8853 48.7161 84.608C49.1428 84.3093 49.3561 83.9253 49.3561 83.456C49.3561 83.0293 49.2175 82.7093 48.9401 82.496C48.6628 82.2827 48.2575 82.1333 47.7241 82.048L44.3641 81.44C43.0415 81.2053 42.0175 80.7253 41.2921 80C40.5881 79.2533 40.2361 78.304 40.2361 77.152C40.2361 76.0853 40.5348 75.168 41.1321 74.4C41.7295 73.6107 42.5508 73.0133 43.5961 72.608C44.6628 72.1813 45.8681 71.968 47.2121 71.968C48.1721 71.968 49.0575 72.0533 49.8681 72.224C50.6788 72.3947 51.4575 72.672 52.2041 73.056C52.5881 73.248 52.8548 73.504 53.0041 73.824C53.1748 74.144 53.2281 74.4747 53.1641 74.816C53.1215 75.1573 52.9935 75.4667 52.7801 75.744C52.5668 76.0213 52.2895 76.2027 51.9481 76.288C51.6281 76.3733 51.2548 76.3307 50.8281 76.16C50.1455 75.84 49.5161 75.616 48.9401 75.488C48.3641 75.3387 47.8095 75.264 47.2761 75.264C46.3161 75.264 45.6228 75.424 45.1961 75.744C44.7695 76.0427 44.5561 76.4267 44.5561 76.896C44.5561 77.2587 44.6735 77.568 44.9081 77.824C45.1641 78.0587 45.5481 78.2187 46.0601 78.304L49.4201 78.912C50.8068 79.1467 51.8628 79.616 52.5881 80.32C53.3135 81.0027 53.6761 81.9413 53.6761 83.136C53.6761 84.7573 53.0361 86.0373 51.7561 86.976C50.4975 87.8933 48.8121 88.352 46.7001 88.352ZM64.5941 88.352C62.7381 88.352 61.1381 88.0213 59.7941 87.36C58.4715 86.6773 57.4475 85.728 56.7221 84.512C56.0181 83.2747 55.6661 81.824 55.6661 80.16C55.6661 78.5387 56.0075 77.12 56.6901 75.904C57.3728 74.6667 58.3221 73.7067 59.5381 73.024C60.7755 72.32 62.1728 71.968 63.7301 71.968C64.8608 71.968 65.8848 72.16 66.8021 72.544C67.7195 72.9067 68.5088 73.44 69.1701 74.144C69.8315 74.8267 70.3328 75.6693 70.6741 76.672C71.0155 77.6533 71.1861 78.752 71.1861 79.968C71.1861 80.3733 71.0581 80.6827 70.8021 80.896C70.5461 81.088 70.1728 81.184 69.6821 81.184H59.6341V78.688H67.6981L67.1861 79.136C67.1861 78.2613 67.0581 77.536 66.8021 76.96C66.5461 76.3627 66.1728 75.9147 65.6821 75.616C65.2128 75.3173 64.6261 75.168 63.9221 75.168C63.1328 75.168 62.4608 75.3493 61.9061 75.712C61.3515 76.0747 60.9248 76.5973 60.6261 77.28C60.3275 77.9627 60.1781 78.784 60.1781 79.744V80C60.1781 81.6213 60.5515 82.816 61.2981 83.584C62.0661 84.352 63.1968 84.736 64.6901 84.736C65.2021 84.736 65.7888 84.672 66.4501 84.544C67.1115 84.416 67.7301 84.2133 68.3061 83.936C68.7968 83.7013 69.2341 83.6267 69.6181 83.712C70.0021 83.776 70.3008 83.9467 70.5141 84.224C70.7275 84.5013 70.8448 84.8213 70.8661 85.184C70.9088 85.5467 70.8341 85.9093 70.6421 86.272C70.4501 86.6133 70.1301 86.9013 69.6821 87.136C68.9568 87.5413 68.1355 87.84 67.2181 88.032C66.3221 88.2453 65.4475 88.352 64.5941 88.352ZM81.6446 88.352C79.938 88.352 78.4446 88.0213 77.1646 87.36C75.906 86.6773 74.9353 85.7173 74.2526 84.48C73.57 83.2427 73.2286 81.7813 73.2286 80.096C73.2286 78.8373 73.4206 77.7067 73.8046 76.704C74.1886 75.7013 74.7433 74.848 75.4686 74.144C76.2153 73.44 77.1113 72.9067 78.1566 72.544C79.202 72.16 80.3646 71.968 81.6446 71.968C82.306 71.968 83.01 72.0533 83.7566 72.224C84.5033 72.3733 85.2393 72.64 85.9646 73.024C86.3913 73.216 86.6793 73.4933 86.8286 73.856C86.9993 74.1973 87.0633 74.56 87.0206 74.944C86.978 75.3067 86.8393 75.6373 86.6046 75.936C86.3913 76.2133 86.114 76.4053 85.7726 76.512C85.4313 76.5973 85.0473 76.5333 84.6206 76.32C84.2153 76.0853 83.7886 75.9147 83.3406 75.808C82.914 75.7013 82.5086 75.648 82.1246 75.648C81.4846 75.648 80.9193 75.7547 80.4286 75.968C79.938 76.16 79.522 76.448 79.1806 76.832C78.8606 77.1947 78.6046 77.6533 78.4126 78.208C78.242 78.7627 78.1566 79.4027 78.1566 80.128C78.1566 81.536 78.498 82.6453 79.1806 83.456C79.8846 84.2453 80.866 84.64 82.1246 84.64C82.5086 84.64 82.914 84.5973 83.3406 84.512C83.7673 84.4053 84.194 84.2347 84.6206 84C85.0473 83.7867 85.4313 83.7333 85.7726 83.84C86.114 83.9467 86.3806 84.1493 86.5726 84.448C86.786 84.7253 86.9033 85.056 86.9246 85.44C86.9673 85.8027 86.9033 86.1653 86.7326 86.528C86.5833 86.8693 86.306 87.136 85.9006 87.328C85.1753 87.6907 84.45 87.9467 83.7246 88.096C82.9993 88.2667 82.306 88.352 81.6446 88.352ZM96.5174 88.352C94.832 88.352 93.36 88.0213 92.1014 87.36C90.864 86.6987 89.904 85.7493 89.2214 84.512C88.5387 83.2747 88.1974 81.8133 88.1974 80.128C88.1974 78.8693 88.3894 77.7387 88.7734 76.736C89.1574 75.7333 89.712 74.88 90.4374 74.176C91.184 73.4507 92.0694 72.9067 93.0934 72.544C94.1174 72.16 95.2587 71.968 96.5174 71.968C98.2027 71.968 99.664 72.2987 100.901 72.96C102.16 73.6213 103.131 74.56 103.813 75.776C104.517 76.992 104.869 78.4427 104.869 80.128C104.869 81.408 104.667 82.5493 104.261 83.552C103.877 84.5547 103.323 85.4187 102.597 86.144C101.872 86.8693 100.987 87.424 99.9414 87.808C98.9174 88.1707 97.776 88.352 96.5174 88.352ZM96.5174 84.736C97.2214 84.736 97.8294 84.5653 98.3414 84.224C98.8534 83.8827 99.2587 83.3813 99.5574 82.72C99.856 82.0373 100.005 81.1733 100.005 80.128C100.005 78.5707 99.6854 77.4293 99.0454 76.704C98.4054 75.9573 97.5627 75.584 96.5174 75.584C95.8347 75.584 95.2267 75.744 94.6934 76.064C94.1814 76.384 93.776 76.8853 93.4774 77.568C93.2 78.2293 93.0614 79.0827 93.0614 80.128C93.0614 81.6853 93.3814 82.848 94.0214 83.616C94.6614 84.3627 95.4934 84.736 96.5174 84.736ZM110.241 88.288C109.452 88.288 108.844 88.0747 108.417 87.648C108.012 87.2213 107.809 86.6133 107.809 85.824V74.464C107.809 73.6747 108.012 73.0773 108.417 72.672C108.844 72.2453 109.43 72.032 110.177 72.032C110.945 72.032 111.532 72.2453 111.937 72.672C112.342 73.0773 112.545 73.6747 112.545 74.464V76.288L112.193 75.232C112.684 74.1867 113.409 73.3867 114.369 72.832C115.35 72.256 116.46 71.968 117.697 71.968C118.956 71.968 119.99 72.2133 120.801 72.704C121.612 73.1733 122.22 73.8987 122.625 74.88C123.03 75.84 123.233 77.0667 123.233 78.56V85.824C123.233 86.6133 123.02 87.2213 122.593 87.648C122.188 88.0747 121.59 88.288 120.801 88.288C120.033 88.288 119.436 88.0747 119.009 87.648C118.604 87.2213 118.401 86.6133 118.401 85.824V78.784C118.401 77.696 118.198 76.9173 117.793 76.448C117.409 75.9573 116.812 75.712 116.001 75.712C114.977 75.712 114.156 76.032 113.537 76.672C112.94 77.312 112.641 78.1653 112.641 79.232V85.824C112.641 87.4667 111.841 88.288 110.241 88.288ZM132.952 88.352C131.587 88.352 130.382 88.0213 129.336 87.36C128.312 86.6987 127.512 85.7493 126.936 84.512C126.36 83.2747 126.072 81.8133 126.072 80.128C126.072 78.4427 126.36 76.992 126.936 75.776C127.512 74.56 128.312 73.6213 129.336 72.96C130.382 72.2987 131.587 71.968 132.952 71.968C134.19 71.968 135.278 72.2667 136.216 72.864C137.176 73.4613 137.827 74.24 138.168 75.2H137.816V67.616C137.816 66.8053 138.019 66.1973 138.424 65.792C138.83 65.3653 139.427 65.152 140.216 65.152C140.984 65.152 141.582 65.3653 142.008 65.792C142.435 66.1973 142.648 66.8053 142.648 67.616V85.824C142.648 86.6133 142.435 87.2213 142.008 87.648C141.603 88.0747 141.016 88.288 140.248 88.288C139.48 88.288 138.883 88.0747 138.456 87.648C138.051 87.2213 137.848 86.6133 137.848 85.824V83.648L138.2 84.896C137.902 85.9413 137.262 86.784 136.28 87.424C135.32 88.0427 134.211 88.352 132.952 88.352ZM134.392 84.736C135.096 84.736 135.704 84.5653 136.216 84.224C136.728 83.8827 137.134 83.3813 137.432 82.72C137.731 82.0373 137.88 81.1733 137.88 80.128C137.88 78.5707 137.56 77.4293 136.92 76.704C136.28 75.9573 135.438 75.584 134.392 75.584C133.71 75.584 133.102 75.744 132.568 76.064C132.056 76.384 131.651 76.8853 131.352 77.568C131.075 78.2293 130.936 79.0827 130.936 80.128C130.936 81.6853 131.256 82.848 131.896 83.616C132.536 84.3627 133.368 84.736 134.392 84.736ZM162.957 88.352C161.25 88.352 159.757 88.0213 158.477 87.36C157.218 86.6773 156.248 85.7173 155.565 84.48C154.882 83.2427 154.541 81.7813 154.541 80.096C154.541 78.8373 154.733 77.7067 155.117 76.704C155.501 75.7013 156.056 74.848 156.781 74.144C157.528 73.44 158.424 72.9067 159.469 72.544C160.514 72.16 161.677 71.968 162.957 71.968C163.618 71.968 164.322 72.0533 165.069 72.224C165.816 72.3733 166.552 72.64 167.277 73.024C167.704 73.216 167.992 73.4933 168.141 73.856C168.312 74.1973 168.376 74.56 168.333 74.944C168.29 75.3067 168.152 75.6373 167.917 75.936C167.704 76.2133 167.426 76.4053 167.085 76.512C166.744 76.5973 166.36 76.5333 165.933 76.32C165.528 76.0853 165.101 75.9147 164.653 75.808C164.226 75.7013 163.821 75.648 163.437 75.648C162.797 75.648 162.232 75.7547 161.741 75.968C161.25 76.16 160.834 76.448 160.493 76.832C160.173 77.1947 159.917 77.6533 159.725 78.208C159.554 78.7627 159.469 79.4027 159.469 80.128C159.469 81.536 159.81 82.6453 160.493 83.456C161.197 84.2453 162.178 84.64 163.437 84.64C163.821 84.64 164.226 84.5973 164.653 84.512C165.08 84.4053 165.506 84.2347 165.933 84C166.36 83.7867 166.744 83.7333 167.085 83.84C167.426 83.9467 167.693 84.1493 167.885 84.448C168.098 84.7253 168.216 85.056 168.237 85.44C168.28 85.8027 168.216 86.1653 168.045 86.528C167.896 86.8693 167.618 87.136 167.213 87.328C166.488 87.6907 165.762 87.9467 165.037 88.096C164.312 88.2667 163.618 88.352 162.957 88.352ZM175.84 88.352C174.688 88.352 173.653 88.128 172.736 87.68C171.819 87.232 171.104 86.624 170.592 85.856C170.08 85.088 169.824 84.224 169.824 83.264C169.824 82.112 170.123 81.2053 170.72 80.544C171.317 79.8613 172.288 79.3813 173.632 79.104C174.976 78.8053 176.757 78.656 178.976 78.656H180.672V81.152H179.008C177.92 81.152 177.035 81.216 176.352 81.344C175.691 81.4507 175.211 81.6427 174.912 81.92C174.635 82.1973 174.496 82.5813 174.496 83.072C174.496 83.6693 174.699 84.16 175.104 84.544C175.531 84.928 176.139 85.12 176.928 85.12C177.547 85.12 178.091 84.9813 178.56 84.704C179.051 84.4053 179.435 84.0107 179.712 83.52C179.989 83.008 180.128 82.432 180.128 81.792V78.112C180.128 77.1733 179.915 76.512 179.488 76.128C179.061 75.7227 178.336 75.52 177.312 75.52C176.736 75.52 176.107 75.5947 175.424 75.744C174.763 75.872 174.027 76.096 173.216 76.416C172.747 76.6293 172.331 76.6827 171.968 76.576C171.605 76.448 171.328 76.2347 171.136 75.936C170.944 75.616 170.848 75.2747 170.848 74.912C170.848 74.528 170.955 74.1653 171.168 73.824C171.381 73.4613 171.733 73.1947 172.224 73.024C173.227 72.6187 174.165 72.3413 175.04 72.192C175.936 72.0427 176.757 71.968 177.504 71.968C179.147 71.968 180.491 72.2133 181.536 72.704C182.603 73.1733 183.403 73.9093 183.936 74.912C184.469 75.8933 184.736 77.1627 184.736 78.72V85.824C184.736 86.6133 184.544 87.2213 184.16 87.648C183.776 88.0747 183.221 88.288 182.496 88.288C181.771 88.288 181.205 88.0747 180.8 87.648C180.416 87.2213 180.224 86.6133 180.224 85.824V84.64L180.448 84.832C180.32 85.5573 180.043 86.1867 179.616 86.72C179.211 87.232 178.688 87.6373 178.048 87.936C177.408 88.2133 176.672 88.352 175.84 88.352ZM190.836 88.288C190.026 88.288 189.407 88.0747 188.98 87.648C188.554 87.2213 188.34 86.6133 188.34 85.824V74.464C188.34 73.6747 188.543 73.0773 188.948 72.672C189.375 72.2453 189.962 72.032 190.708 72.032C191.476 72.032 192.063 72.2453 192.468 72.672C192.874 73.0773 193.076 73.6747 193.076 74.464V76.128H192.756C193.012 74.848 193.578 73.856 194.452 73.152C195.327 72.448 196.458 72.0533 197.844 71.968C198.378 71.9253 198.783 72.064 199.06 72.384C199.359 72.6827 199.519 73.184 199.54 73.888C199.583 74.5493 199.444 75.072 199.124 75.456C198.826 75.84 198.314 76.0747 197.588 76.16L196.852 76.224C195.636 76.3307 194.73 76.6827 194.132 77.28C193.556 77.8773 193.268 78.7413 193.268 79.872V85.824C193.268 86.6133 193.055 87.2213 192.628 87.648C192.223 88.0747 191.626 88.288 190.836 88.288ZM207.359 88.352C205.993 88.352 204.788 88.0213 203.743 87.36C202.719 86.6987 201.919 85.7493 201.343 84.512C200.767 83.2747 200.479 81.8133 200.479 80.128C200.479 78.4427 200.767 76.992 201.343 75.776C201.919 74.56 202.719 73.6213 203.743 72.96C204.788 72.2987 205.993 71.968 207.359 71.968C208.596 71.968 209.684 72.2667 210.623 72.864C211.583 73.4613 212.233 74.24 212.575 75.2H212.223V67.616C212.223 66.8053 212.425 66.1973 212.831 65.792C213.236 65.3653 213.833 65.152 214.623 65.152C215.391 65.152 215.988 65.3653 216.415 65.792C216.841 66.1973 217.055 66.8053 217.055 67.616V85.824C217.055 86.6133 216.841 87.2213 216.415 87.648C216.009 88.0747 215.423 88.288 214.655 88.288C213.887 88.288 213.289 88.0747 212.863 87.648C212.457 87.2213 212.255 86.6133 212.255 85.824V83.648L212.607 84.896C212.308 85.9413 211.668 86.784 210.687 87.424C209.727 88.0427 208.617 88.352 207.359 88.352ZM208.799 84.736C209.503 84.736 210.111 84.5653 210.623 84.224C211.135 83.8827 211.54 83.3813 211.839 82.72C212.137 82.0373 212.287 81.1733 212.287 80.128C212.287 78.5707 211.967 77.4293 211.327 76.704C210.687 75.9573 209.844 75.584 208.799 75.584C208.116 75.584 207.508 75.744 206.975 76.064C206.463 76.384 206.057 76.8853 205.759 77.568C205.481 78.2293 205.343 79.0827 205.343 80.128C205.343 81.6853 205.663 82.848 206.303 83.616C206.943 84.3627 207.775 84.736 208.799 84.736ZM232.051 88.16C231.198 88.16 230.515 87.904 230.003 87.392C229.513 86.88 229.267 86.2187 229.267 85.408C229.267 84.6187 229.513 83.9787 230.003 83.488C230.515 82.976 231.198 82.72 232.051 82.72C232.905 82.72 233.566 82.976 234.035 83.488C234.526 83.9787 234.771 84.6187 234.771 85.408C234.771 86.2187 234.526 86.88 234.035 87.392C233.566 87.904 232.905 88.16 232.051 88.16Z" fill="#11AEC6"/>
<defs>
<filter id="filter0_d_2297_177" x="0.308353" y="0.73438" width="290.496" height="150.218" filterUnits="userSpaceOnUse" color-interpolation-filters="sRGB">
<feFlood flood-opacity="0" result="BackgroundImageFix"/>
<feColorMatrix in="SourceAlpha" type="matrix" values="0 0 0 0 0 0 0 0 0 0 0 0 0 0 0 0 0 0 127 0" result="hardAlpha"/>
<feOffset dx="1.42603" dy="2.85206"/>
<feGaussianBlur stdDeviation="7.05884"/>
<feComposite in2="hardAlpha" operator="out"/>
<feColorMatrix type="matrix" values="0 0 0 0 0.594723 0 0 0 0 0.748542 0 0 0 0 0.0819922 0 0 0 1 0"/>
<feBlend mode="normal" in2="BackgroundImageFix" result="effect1_dropShadow_2297_177"/>
<feBlend mode="normal" in="SourceGraphic" in2="effect1_dropShadow_2297_177" result="shape"/>
</filter>
</defs>
</svg>
