<svg width="52" height="55" viewBox="0 0 52 55" fill="none" xmlns="http://www.w3.org/2000/svg">
<path d="M25.9775 51.9549C40.3244 51.9549 51.9549 40.3244 51.9549 25.9775C51.9549 11.6305 40.3244 0 25.9775 0C11.6305 0 0 11.6305 0 25.9775C0 40.3244 11.6305 51.9549 25.9775 51.9549Z" fill="#FFCB4C"/>
<path d="M20.6658 32.1173C20.4442 31.94 20.2715 31.6986 20.189 31.4083C19.9843 30.7053 20.3877 30.0055 21.0906 29.8481C28.0098 28.2879 32.6689 31.9309 32.866 32.0867C33.4528 32.5543 33.5674 33.378 33.1304 33.9281C32.6934 34.4751 31.8651 34.5408 31.2799 34.0763C31.1118 33.9479 27.4245 31.1378 21.8332 32.3985C21.4145 32.4917 20.9867 32.374 20.6658 32.1173Z" fill="#65471B"/>
<path d="M18.5192 21.106C20.3125 21.106 21.7663 19.2889 21.7663 17.0474C21.7663 14.8059 20.3125 12.9888 18.5192 12.9888C16.7258 12.9888 15.272 14.8059 15.272 17.0474C15.272 19.2889 16.7258 21.106 18.5192 21.106Z" fill="#65471B"/>
<path d="M35.7189 22.7288C37.5122 22.7288 38.966 20.9117 38.966 18.6702C38.966 16.4287 37.5122 14.6116 35.7189 14.6116C33.9255 14.6116 32.4717 16.4287 32.4717 18.6702C32.4717 20.9117 33.9255 22.7288 35.7189 22.7288Z" fill="#65471B"/>
<path d="M24.8713 53.6833C24.8713 53.6833 26.8044 53.0553 27.055 51.6174C27.3193 50.1321 26.1014 49.8341 26.1014 49.8341C26.1014 49.8341 27.6922 49.5162 27.8924 47.7314C28.0803 46.049 26.5767 45.6486 26.5767 45.6486C26.5767 45.6486 28.0589 45.0374 28.1292 43.2969C28.1873 41.8315 26.6088 41.1148 26.6088 41.1148C26.6088 41.1148 34.3073 39.249 35.0988 39.0656C35.8873 38.8823 37.1159 38.1259 36.7323 36.4771C36.3518 34.8267 34.8925 34.7687 34.1392 34.9444C33.3843 35.1201 23.8338 37.3374 20.5392 38.1045L18.3403 38.6149C17.5151 38.8089 17.1407 38.4468 17.7229 37.8325C18.4992 37.0134 18.9958 36.1073 19.1685 34.6036C19.3504 33.0221 18.814 31.0692 18.5068 30.3112C17.9353 28.9039 16.9711 27.7914 15.8571 27.4094C14.1197 26.8134 12.885 27.8999 13.5008 29.7947C14.4238 32.6278 13.8187 34.952 12.2279 36.3548C8.48566 39.6509 6.74517 42.0011 7.90346 47.0102C9.16871 52.4731 14.5919 55.9892 20.0548 54.724L24.8713 53.6833Z" fill="#F19020"/>
<path d="M12.6765 9.67751C12.4259 9.54304 12.2135 9.33522 12.079 9.06781C11.749 8.41379 12.0179 7.65127 12.6796 7.36857C19.1984 4.57065 24.4443 7.30287 24.6644 7.42053C25.326 7.77352 25.5934 8.56201 25.2619 9.18394C24.9318 9.80282 24.1311 10.0183 23.4694 9.66987C23.2815 9.5736 19.1419 7.48165 13.8761 9.74169C13.4834 9.90825 13.0402 9.87158 12.6765 9.67751ZM31.2199 15.4078C30.9815 15.2581 30.7828 15.0365 30.6667 14.7599C30.3809 14.0845 30.7018 13.3434 31.3818 13.1035C38.0764 10.7563 43.1252 13.837 43.3361 13.9699C43.9702 14.3672 44.1842 15.1725 43.8128 15.77C43.443 16.366 42.627 16.5264 41.9929 16.1337C41.8095 16.0237 37.8258 13.6567 32.4164 15.5545C32.0099 15.6936 31.5713 15.6248 31.2199 15.4078Z" fill="#65471B"/>
</svg>
