<svg width="809" height="142" viewBox="0 0 809 142" fill="none" xmlns="http://www.w3.org/2000/svg">
<path d="M736.735 44.3528C743.724 44.387 747.218 44.4041 749.814 45.9196C751.514 46.9124 752.923 48.3353 753.899 50.0453C755.389 52.6555 755.372 56.1499 755.338 63.1387C755.303 70.1275 755.286 73.6219 753.771 76.2174C752.778 77.9177 751.355 79.3267 749.645 80.3029C747.035 81.7928 743.541 81.7757 736.552 81.7415L18.6882 78.2255C11.6994 78.1912 8.20503 78.1741 5.60958 76.6586C3.90922 75.6658 2.50022 74.2429 1.52409 72.533C0.034108 69.9228 0.0512233 66.4284 0.0854539 59.4395C0.119684 52.4507 0.1368 48.9563 1.65228 46.3609C2.64511 44.6605 4.06799 43.2515 5.77799 42.2754C8.38816 40.7854 11.8826 40.8025 18.8714 40.8367L736.735 44.3528Z" fill="#E2F2F5"/>
<g clip-path="url(#clip0_2222_172)">
<path d="M146.663 41.4626C150.188 41.4799 151.95 41.4885 153.04 42.589C154.13 43.6894 154.121 45.452 154.104 48.977L153.994 71.4102C153.977 74.9353 153.968 76.6978 152.868 77.7875C151.767 78.8773 150.005 78.8686 146.48 78.8514L-427.437 76.0404C-434.426 76.0061 -437.92 75.989 -440.516 74.4735C-442.216 73.4807 -443.625 72.0578 -444.601 70.3479C-446.091 67.7377 -446.074 64.2433 -446.04 57.2544C-446.006 50.2656 -445.989 46.7712 -444.473 44.1758C-443.48 42.4754 -442.057 41.0664 -440.347 40.0903C-437.737 38.6003 -434.243 38.6174 -427.254 38.6516L146.663 41.4626Z" fill="#C4C4C4" fill-opacity="0.74"/>
<path d="M2.0646 40.7547C3.53257 40.7619 4.86052 41.6275 5.45964 42.9677L18.8611 72.945C19.97 75.4255 18.1465 78.2231 15.4294 78.2098L-1.69136 78.126C-3.19621 78.1186 -4.54998 77.2097 -5.1266 75.8197L-17.5603 45.8471C-18.5847 43.3778 -16.7618 40.6625 -14.0884 40.6756L2.0646 40.7547Z" fill="#C4C4C4"/>
<path d="M46.9311 40.974C48.399 40.9812 49.727 41.8467 50.3261 43.1869L63.7275 73.1642C64.8364 75.6448 63.0129 78.4424 60.2958 78.4291L43.1751 78.3452C41.6702 78.3378 40.3165 77.429 39.7399 76.039L27.3062 46.0664C26.2818 43.5971 28.1047 40.8818 30.778 40.8949L46.9311 40.974Z" fill="#C4C4C4"/>
<path d="M91.7979 41.1941C93.2659 41.2013 94.5938 42.0668 95.1929 43.407L108.594 73.3843C109.703 75.8649 107.88 78.6625 105.163 78.6491L88.0419 78.5653C86.5371 78.5579 85.1833 77.6491 84.6067 76.2591L72.173 46.2865C71.1486 43.8172 72.9715 41.1019 75.6448 41.1149L91.7979 41.1941Z" fill="#C4C4C4"/>
<path d="M136.664 41.4137C138.132 41.4209 139.46 42.2864 140.059 43.6266L153.46 73.6039C154.569 76.0845 152.746 78.8821 150.029 78.8687L132.908 78.7849C131.403 78.7775 130.049 77.8687 129.473 76.4787L117.039 46.5061C116.014 44.0368 117.837 41.3215 120.511 41.3346L136.664 41.4137Z" fill="#C4C4C4"/>
</g>
<path d="M769.927 41.2656C770.306 37.9679 769.777 35.0367 768.619 32.583C767.668 30.5671 767.503 28.2121 768.107 25.9922C768.149 25.8366 768.195 25.6815 768.244 25.5274L770.176 19.563C771.271 16.1803 769.734 12.5236 766.624 11.4143C763.398 10.2632 759.817 12.2144 758.688 15.7009L757.629 18.9728C756.671 21.9303 754.413 24.2559 751.599 25.168C748.852 26.0586 746.223 27.8538 744.064 30.6976C736.576 40.5598 727.195 48.832 716.434 54.841C705.674 60.85 694.053 64.3055 682.371 65.1484C675.065 65.6757 670.103 71.0622 668.517 77.2622C666.924 83.4877 668.735 90.5336 674.997 94.3052C682.601 98.8856 691.243 101.73 700.436 102.442C724.579 104.313 748.172 91.1377 760.981 68.6328C765.863 60.0544 768.843 50.7095 769.927 41.2656Z" fill="#C4C4C4"/>
<path d="M768.107 25.9922C768.149 25.8366 768.195 25.6815 768.244 25.5274L769.257 22.3989L770.176 19.563C771.271 16.1803 769.734 12.5236 766.624 11.4143C763.398 10.2632 759.817 12.2144 758.688 15.7009L757.709 18.7256L757.629 18.9728C756.671 21.9303 754.413 24.2559 751.599 25.168C748.852 26.0586 746.223 27.8538 744.064 30.6977C736.576 40.5598 727.195 48.832 716.434 54.8411C705.674 60.85 694.053 64.3055 682.371 65.1485C675.065 65.6757 670.103 71.0622 668.517 77.2622C687.504 85.6334 709.325 84.7605 728.412 74.8647C747.372 65.0348 761.811 47.2464 768.107 25.9922Z" fill="#D6D6D3"/>
<path d="M770.774 18.0956L771.692 15.2598C772.787 11.8771 771.25 8.22038 768.141 7.11103C764.914 5.96002 761.333 7.91113 760.205 11.3977L759.225 14.4224C762.68 16.6764 766.654 17.9407 770.774 18.0956Z" fill="#CCCCCC"/>
<path d="M697.149 95.2719C696.516 97.1454 691.636 98.2052 686.322 96.4097C681.007 94.6142 677.272 90.6434 677.905 88.7699C678.538 86.8964 683.359 86.8331 688.674 88.6286C693.988 90.424 697.783 93.3984 697.149 95.2719Z" fill="white" fill-opacity="0.6"/>
<path d="M743.757 38.037C742.793 36.9797 744.025 33.3436 747.275 30.3796C750.526 27.4156 754.564 26.246 755.528 27.3033C756.492 28.3606 754.639 31.6205 751.388 34.5845C748.138 37.5485 744.721 39.0942 743.757 38.037Z" fill="white" fill-opacity="0.45"/>
<defs>
<clipPath id="clip0_2222_172">
<path d="M154.141 41.4993L153.957 78.888L18.6887 78.2255C11.6999 78.1912 8.20548 78.1741 5.61002 76.6586C3.9097 75.6658 2.50066 74.2429 1.52456 72.5329C0.0345641 69.9228 0.0516794 66.4283 0.0859099 59.4395C0.120141 52.4507 0.137256 48.9563 1.65275 46.3608C2.64555 44.6605 4.06846 43.2515 5.77843 42.2754C8.3886 40.7854 11.883 40.8025 18.8718 40.8367L154.141 41.4993Z" fill="white"/>
</clipPath>
</defs>
</svg>
